<svg width="557" height="427" viewBox="0 0 557 427" fill="none" xmlns="http://www.w3.org/2000/svg">
<g clip-path="url(#clip0_1077_8816)">
<path d="M437.92 107.23L430.02 92.3601" stroke="#0185A9" stroke-width="2"/>
<path d="M430.02 92.3601C435.02 85.1601 438.17 77.2901 439.47 68.7501C441.017 58.5234 439.043 48.9367 433.55 39.9901C430.443 34.9234 425.797 31.7801 419.61 30.5601" stroke="#38B0BC" stroke-width="2"/>
<path d="M419.61 30.56L418.95 29.75" stroke="#53B2BC" stroke-width="2"/>
<path d="M419.61 30.5601C419.737 31.1334 419.747 31.7967 419.64 32.5501C419.54 33.2634 419.567 33.9034 419.72 34.4701C421.093 39.4967 421.803 44.6901 421.85 50.0501" stroke="#89FAF1" stroke-width="2"/>
<path d="M393.27 143.2L393.84 122.09" stroke="#03B5D9" stroke-width="2"/>
<path d="M430.02 92.3601L420.7 101.26" stroke="#38CDDE" stroke-width="2"/>
<path d="M360.55 150.7C359.93 145.94 359.407 141.207 358.98 136.5C358.787 134.427 359.903 132.53 362.33 130.81" stroke="#0ADAF1" stroke-width="2"/>
<path d="M322.07 129.07C321.463 133.59 321.587 138.067 322.44 142.5C322.827 144.52 323.93 146.68 325.75 148.98" stroke="#3FF2F6" stroke-width="2"/>
<path d="M277.89 118.63C276.983 120.35 277.207 122.037 278.56 123.69C280.98 126.657 282.843 129.127 284.15 131.1C285.983 133.873 287.94 137.42 290.02 141.74" stroke="#89FAF1" stroke-width="2"/>
<path d="M206.2 122.14C207.8 120.453 209.64 119.053 211.72 117.94C213.613 116.927 215.173 115.93 216.4 114.95C218.233 113.483 220.18 112.167 222.24 111C223.353 110.367 224.277 108.547 225.01 105.54" stroke="#89FAF1" stroke-width="2"/>
<path d="M144.95 156.69C141.93 155.377 139.61 154.997 137.99 155.55C133.81 156.98 129.19 157.94 125.3 155.7C122.44 154.047 119.717 151.89 117.13 149.23C115.43 147.47 113.55 146.18 111.57 144.77C111.31 144.583 111.05 144.59 110.79 144.79C110.377 145.103 110.067 145.52 109.86 146.04C109.727 146.367 109.507 146.567 109.2 146.64C108.927 146.707 108.577 146.68 108.15 146.56" stroke="#3FF2F6" stroke-width="2"/>
<path d="M485.46 129.74L483.32 129.68" stroke="#158B9B" stroke-opacity="0.996" stroke-width="2"/>
<path d="M485.99 129.81L483.66 131.31" stroke="#0E6683" stroke-opacity="0.996" stroke-width="2"/>
<path d="M122.96 81.98C122.28 80.7133 122.053 79.37 122.28 77.95" stroke="#3FF2F6" stroke-width="2"/>
<path d="M473.36 315.19C469.687 310.563 466.693 305.707 464.38 300.62C464.28 300.4 463.987 300.227 463.5 300.1" stroke="#89FAF1" stroke-width="2"/>
<path d="M414.06 330.18C414.927 329.167 415.657 328.047 416.25 326.82C416.863 325.533 417.583 324.45 418.41 323.57C421.477 320.29 423.4 316.607 424.18 312.52" stroke="#89FAF1" stroke-width="2"/>
<path d="M362.32 310.79C363.38 312.01 363.997 312.933 364.17 313.56C364.62 315.24 364.36 317.23 363.77 319.08C362.777 322.193 361.923 325.45 361.21 328.85" stroke="#3FF2F6" stroke-width="2"/>
<path d="M322.66 337.33C322.433 337.037 322.26 336.417 322.14 335.47C321.66 331.56 316.75 329.82 315.83 325.81C315.403 323.97 315.487 322.01 316.08 319.93" stroke="#0ADAF1" stroke-width="2"/>
<path d="M131.2 282.42C130.613 287.78 129.457 292.97 127.73 297.99C127.39 298.983 127.09 300.64 126.83 302.96C126.703 304.04 126.743 305.713 126.95 307.98C127.123 309.953 127.007 311.84 126.6 313.64" stroke="#0ADAF1" stroke-width="2"/>
<path d="M113.63 302.5C115.67 294.373 117.147 286.413 118.06 278.62" stroke="#03B5D9" stroke-width="2"/>
<path d="M173.48 314.7C172.213 318.68 171.04 321.177 169.96 322.19C166.953 325.01 164.343 328.147 162.13 331.6" stroke="#3FF2F6" stroke-width="2"/>
<path d="M223.27 328.5C221.843 330.867 220.447 333.22 219.08 335.56C218.053 337.313 216.863 338.84 215.51 340.14C214.163 341.447 212.737 342.783 211.23 344.15" stroke="#89FAF1" stroke-width="2"/>
<path d="M286.75 340.76C286.963 344.58 287.717 347.497 289.01 349.51C291.55 353.443 294.013 357.643 296.4 362.11" stroke="#89FAF1" stroke-width="2"/>
<path d="M200.98 304.52C200.147 304.98 199.3 304.8 198.44 303.98" stroke="#89FAF1" stroke-width="2"/>
<path d="M339.43 358.34C338.563 360.2 338.313 362.177 338.68 364.27C339.193 367.197 339.453 368.707 339.46 368.8C339.773 372.293 340.31 375.923 341.07 379.69" stroke="#3FF2F6" stroke-width="2"/>
<path d="M368.63 376.32C367.803 383.853 364.14 388.26 357.64 389.54" stroke="#089DB5" stroke-width="2"/>
<path d="M402.5 361.31C402.247 360.177 401.907 359.53 401.48 359.37" stroke="#5AF4F6" stroke-width="2"/>
<path d="M522.91 308.42C523.157 308.087 523.01 307.713 522.47 307.3C522.177 307.08 521.693 307.037 521.02 307.17" stroke="#0185A9" stroke-width="2"/>
<path d="M185.45 403.88C184.317 406.093 182.9 407.527 181.2 408.18C178.293 409.3 175.397 410.407 172.51 411.5C171.603 411.84 170.11 411.847 168.03 411.52" stroke="#3FF2F6" stroke-width="2"/>
<path d="M379.643 2.72013L379.603 2.7202C379.134 2.72102 378.754 3.10224 378.755 3.57168L378.965 124.291C378.966 124.761 379.347 125.141 379.817 125.14L379.857 125.14C380.326 125.139 380.706 124.758 380.705 124.288L380.495 3.56864C380.494 3.0992 380.113 2.71931 379.643 2.72013Z" fill="#0FEBFB"/>
<path d="M256.07 46.31C256.07 46.3258 256.067 46.3414 256.061 46.356C256.055 46.3705 256.046 46.3837 256.035 46.3949C256.024 46.406 256.011 46.4149 255.996 46.4209C255.981 46.4269 255.966 46.43 255.95 46.43H255.9C255.749 46.4315 255.599 45.9976 255.457 45.153C255.316 44.3083 255.187 43.0696 255.078 41.5076C254.968 39.9456 254.88 38.0908 254.819 36.0494C254.757 34.008 254.724 31.8198 254.72 29.61L254.7 20.11C254.692 15.6511 254.806 11.3746 255.016 8.22055C255.226 5.06652 255.515 3.29307 255.82 3.29004H255.87C255.902 3.29004 255.932 3.30268 255.955 3.32519C255.977 3.34769 255.99 3.37821 255.99 3.41004L256.07 46.31Z" fill="#01A1CA"/>
<path d="M437.92 107.23L430.02 92.36C435.02 85.16 438.17 77.29 439.47 68.75C441.017 58.5233 439.043 48.9366 433.55 39.99C430.443 34.9233 425.797 31.78 419.61 30.56L418.95 29.75C427.05 27.19 434.72 31.43 439.82 37.73C446.61 46.13 449.1 56.27 449.62 67.25C450.033 76.17 448.52 85.0333 445.08 93.84C443.213 98.6066 440.827 103.07 437.92 107.23Z" fill="#016887"/>
<path d="M418.95 29.75L419.61 30.56C419.737 31.1333 419.747 31.7967 419.64 32.55C419.54 33.2633 419.567 33.9033 419.72 34.47C421.093 39.4967 421.803 44.69 421.85 50.05C416.94 47.28 411.96 45.65 406.61 48.52C406.395 48.6346 406.155 48.6932 405.911 48.6904C405.667 48.6876 405.428 48.6234 405.216 48.5038C405.004 48.3842 404.825 48.2131 404.696 48.0062C404.568 47.7993 404.493 47.5633 404.48 47.32C403.887 36.82 408.71 30.9633 418.95 29.75Z" fill="#A4FCF0"/>
<path d="M419.61 30.5601C425.797 31.7801 430.443 34.9234 433.55 39.9901C439.043 48.9367 441.017 58.5234 439.47 68.7501C438.17 77.2901 435.02 85.1601 430.02 92.3601L420.7 101.26C424.887 94.1001 427.633 87.4267 428.94 81.2401C430.433 74.1801 430.5 67.8301 429.14 62.1901C428.087 57.8434 425.657 53.7967 421.85 50.0501C421.803 44.6901 421.093 39.4967 419.72 34.4701C419.567 33.9034 419.54 33.2634 419.64 32.5501C419.747 31.7967 419.737 31.1334 419.61 30.5601Z" fill="#6EF8F1"/>
<path d="M485.46 129.74L483.32 129.68L483.03 58.39C483.03 58.2671 482.981 58.149 482.893 58.0612C482.805 57.9733 482.686 57.9226 482.56 57.92C476.1 57.8867 469.09 57.9033 461.53 57.97C460.323 57.9767 459.49 57.43 459.03 56.33C458.997 56.2433 458.973 56.1567 458.96 56.07C458.787 54.8967 459.293 54.3067 460.48 54.3L485.25 54.26C485.75 54.26 486 54.5067 486 55L485.99 128.98C485.99 129.187 485.91 129.36 485.75 129.5L485.46 129.74Z" fill="#0FEBFB"/>
<path d="M122.96 81.9799C122.28 80.7133 122.053 79.3699 122.28 77.9499C122.32 70.7433 125.45 65.8799 131.67 63.3599C133.31 62.6999 135.48 62.4799 138.18 62.6999C143.37 63.1199 148.17 67.4899 149.96 72.1099C150.633 73.8499 150.877 75.8233 150.69 78.0299C150.22 83.6499 145.1 88.7999 139.98 89.9799C135.047 91.1133 130.94 90.3199 127.66 87.5999C126.86 86.9333 125.293 85.0599 122.96 81.9799Z" fill="#6EF8F1"/>
<path d="M236.29 82.48C240.156 82.48 243.29 79.346 243.29 75.48C243.29 71.614 240.156 68.48 236.29 68.48C232.424 68.48 229.29 71.614 229.29 75.48C229.29 79.346 232.424 82.48 236.29 82.48Z" fill="#6EF8F1"/>
<path d="M470.27 151.36C469.4 150.03 469.2 147.22 469.16 145.73C468.56 122.65 468.547 99.02 469.12 74.84C469.133 74.4133 469.333 74.1066 469.72 73.92L470.03 73.77C470.08 73.7478 470.134 73.7382 470.188 73.7421C470.243 73.746 470.295 73.7633 470.34 73.7923C470.385 73.8213 470.421 73.8612 470.446 73.908C470.47 73.9548 470.482 74.0072 470.48 74.06C470.34 101.09 470.27 126.59 470.87 151.18C470.89 151.947 470.69 152.007 470.27 151.36Z" fill="#0FEBFB"/>
<path d="M122.28 77.95C122.053 79.37 122.28 80.7133 122.96 81.98L41.76 81.99C41.26 81.99 41.01 82.24 41.01 82.74L40.99 169.53C40.99 170.23 40.65 170.637 39.97 170.75L39.2 170.88C39.05 170.906 38.896 170.899 38.749 170.86C38.602 170.82 38.4654 170.749 38.3491 170.65C38.2327 170.552 38.1393 170.429 38.0756 170.291C38.0118 170.153 37.9791 170.002 37.98 169.85L37.86 79.3C37.86 78.7666 38.1267 78.4966 38.66 78.49L122.28 77.95Z" fill="#0FEBFB"/>
<path d="M277.89 118.63C276.983 120.35 277.207 122.037 278.56 123.69C280.98 126.657 282.843 129.127 284.15 131.1C285.983 133.873 287.94 137.42 290.02 141.74C280.327 139.14 271.093 136.573 262.32 134.04C261.1 133.687 259.737 133.387 258.23 133.14C256.583 132.867 255.21 132.58 254.11 132.28C238.67 128.02 229.27 125.637 225.91 125.13C219.417 124.163 212.847 123.167 206.2 122.14C207.8 120.453 209.64 119.053 211.72 117.94C213.613 116.927 215.173 115.93 216.4 114.95C218.233 113.483 220.18 112.167 222.24 111C223.353 110.367 224.277 108.547 225.01 105.54L235.65 107.4C235.997 107.46 236.163 107.317 236.15 106.97C235.823 99.2567 235.927 91.7534 236.46 84.46C236.474 84.2596 236.557 84.0699 236.696 83.9226C236.834 83.7752 237.019 83.679 237.22 83.65L237.53 83.61C237.591 83.6014 237.654 83.6058 237.713 83.623C237.773 83.6401 237.828 83.6697 237.874 83.7096C237.921 83.7495 237.958 83.7988 237.983 83.8541C238.008 83.9094 238.021 83.9694 238.02 84.03L238.04 107.51C238.04 107.843 238.203 108.057 238.53 108.15L277.89 118.63Z" fill="#A4FCF0"/>
<path d="M297.22 104.108C302.735 103.343 306.609 98.43 305.874 93.1346C305.14 87.8393 300.074 84.1668 294.56 84.9319C289.045 85.6971 285.171 90.6101 285.906 95.9055C286.64 101.201 291.706 104.873 297.22 104.108Z" fill="#6EF8F1"/>
<path d="M391.31 105.06C395.071 105.06 398.12 102.011 398.12 98.2499C398.12 94.4889 395.071 91.4399 391.31 91.4399C387.549 91.4399 384.5 94.4889 384.5 98.2499C384.5 102.011 387.549 105.06 391.31 105.06Z" fill="#0FEBFB"/>
<path d="M430.02 92.3601L437.92 107.23C435.54 111.27 432.907 114.863 430.02 118.01C419.853 129.103 407.603 137.5 393.27 143.2L393.84 122.09C398.66 119.157 403.487 116.157 408.32 113.09C409.587 112.29 410.72 111.397 411.72 110.41C414.213 107.97 416.767 105.473 419.38 102.92C419.633 102.667 419.847 102.387 420.02 102.08C420.287 101.613 420.513 101.34 420.7 101.26L430.02 92.3601Z" fill="#01A1CA"/>
<path d="M348.04 106.15C350.061 106.15 351.7 104.511 351.7 102.49C351.7 100.469 350.061 98.8301 348.04 98.8301C346.019 98.8301 344.38 100.469 344.38 102.49C344.38 104.511 346.019 106.15 348.04 106.15Z" fill="#1C2A3B" fill-opacity="0.992"/>
<path d="M225.01 105.54C224.277 108.547 223.353 110.367 222.24 111C220.18 112.167 218.233 113.483 216.4 114.95C215.173 115.93 213.613 116.927 211.72 117.94C209.64 119.053 207.8 120.453 206.2 122.14C196.2 121.287 187.633 121.25 180.5 122.03C178.54 122.243 175.147 122.867 170.32 123.9C166.413 124.74 163.083 125.65 160.33 126.63C154.917 128.557 150.09 130.697 145.85 133.05C142.69 134.797 139.55 136.887 136.43 139.32C136.291 139.429 136.18 139.57 136.107 139.732C136.034 139.893 136.001 140.069 136.011 140.246C136.021 140.423 136.073 140.594 136.164 140.746C136.254 140.899 136.38 141.027 136.53 141.12C142.25 144.62 145.057 149.81 144.95 156.69C141.93 155.377 139.61 154.997 137.99 155.55C133.81 156.98 129.19 157.94 125.3 155.7C122.44 154.047 119.717 151.89 117.13 149.23C115.43 147.47 113.55 146.18 111.57 144.77C111.31 144.583 111.05 144.59 110.79 144.79C110.377 145.103 110.067 145.52 109.86 146.04C109.727 146.367 109.507 146.567 109.2 146.64C108.927 146.707 108.577 146.68 108.15 146.56C109.097 141.207 110.99 136.543 113.83 132.57C118.283 126.343 123.783 121.19 130.33 117.11C136.763 113.097 143.337 110.13 150.05 108.21C155.26 106.72 160.71 105.13 166.17 104.35C185.923 101.51 205.537 101.907 225.01 105.54Z" fill="#6EF8F1"/>
<path d="M87.43 132.08C93.2676 132.08 98 127.348 98 121.51C98 115.672 93.2676 110.94 87.43 110.94C81.5923 110.94 76.86 115.672 76.86 121.51C76.86 127.348 81.5923 132.08 87.43 132.08Z" fill="#01A1CA"/>
<path d="M277.89 118.63C279.73 118.897 281.497 119.297 283.19 119.83C285.557 120.563 287.293 121.053 288.4 121.3C292.76 122.28 296.94 123.69 301.32 124.53C303.38 124.917 305.417 125.377 307.43 125.91C309.663 126.503 312.103 127.017 314.75 127.45C317.297 127.87 319.737 128.41 322.07 129.07C321.463 133.59 321.587 138.067 322.44 142.5C322.827 144.52 323.93 146.68 325.75 148.98L290.02 141.74C287.94 137.42 285.983 133.873 284.15 131.1C282.843 129.127 280.98 126.657 278.56 123.69C277.207 122.037 276.983 120.35 277.89 118.63Z" fill="#6EF8F1"/>
<path d="M393.84 122.09L393.27 143.2C390.523 144.26 387.73 145.243 384.89 146.15C383.163 146.697 381.383 147.15 379.55 147.51C377.13 147.97 374.86 148.85 372.38 149.18C368.44 149.707 364.497 150.213 360.55 150.7C359.93 145.94 359.407 141.207 358.98 136.5C358.787 134.427 359.903 132.53 362.33 130.81C365.59 130.683 368.737 130.277 371.77 129.59C379.023 127.95 386.38 125.45 393.84 122.09Z" fill="#05C9E7"/>
<path d="M322.07 129.07C335.217 131.19 348.637 131.77 362.33 130.81C359.903 132.53 358.787 134.427 358.98 136.5C359.407 141.207 359.93 145.94 360.55 150.7C348.683 151.447 337.083 150.873 325.75 148.98C323.93 146.68 322.827 144.52 322.44 142.5C321.587 138.067 321.463 133.59 322.07 129.07Z" fill="#0FEBFB"/>
<path d="M483.32 129.68L485.46 129.74C485.633 129.767 485.81 129.79 485.99 129.81L483.66 131.31C483.693 130.59 483.58 130.047 483.32 129.68Z" fill="#1C2A3B" fill-opacity="0.992"/>
<path d="M485.99 129.81C485.297 138.683 485.003 147.413 485.11 156C485.117 156.333 485.033 156.577 484.86 156.73C484.633 156.93 484.507 156.877 484.48 156.57C483.707 148.083 483.433 139.663 483.66 131.31L485.99 129.81Z" fill="#01A1CA"/>
<path d="M510.411 130.635L501.645 129.868C501.502 129.855 501.375 129.961 501.363 130.104L501.353 130.224C501.34 130.367 501.446 130.493 501.589 130.505L510.355 131.272C510.498 131.285 510.625 131.179 510.637 131.036L510.647 130.916C510.66 130.773 510.554 130.647 510.411 130.635Z" fill="#1C2A3B" fill-opacity="0.992"/>
<path d="M499.338 130.909C500.296 130.836 501.065 130.673 501.055 130.547C501.045 130.42 500.26 130.377 499.302 130.451C498.344 130.524 497.575 130.687 497.585 130.814C497.595 130.94 498.379 130.983 499.338 130.909Z" fill="#1C2A3B" fill-opacity="0.992"/>
<path d="M144.95 156.69C145.383 161.39 144.177 165.523 141.33 169.09C137.15 174.323 131.507 176.517 124.4 175.67C117.147 174.81 112.09 171.257 109.23 165.01C106.69 159.47 106.33 153.32 108.15 146.56C108.577 146.68 108.927 146.707 109.2 146.64C109.507 146.567 109.727 146.367 109.86 146.04C110.067 145.52 110.377 145.103 110.79 144.79C111.05 144.59 111.31 144.583 111.57 144.77C113.55 146.18 115.43 147.47 117.13 149.23C119.717 151.89 122.44 154.047 125.3 155.7C129.19 157.94 133.81 156.98 137.99 155.55C139.61 154.997 141.93 155.377 144.95 156.69Z" fill="#0FEBFB"/>
<path d="M425.62 159.22C428.84 159.22 431.45 156.61 431.45 153.39C431.45 150.17 428.84 147.56 425.62 147.56C422.4 147.56 419.79 150.17 419.79 153.39C419.79 156.61 422.4 159.22 425.62 159.22Z" fill="#01A1CA"/>
<path d="M181.82 166.85C186.774 166.85 190.79 162.834 190.79 157.88C190.79 152.926 186.774 148.91 181.82 148.91C176.866 148.91 172.85 152.926 172.85 157.88C172.85 162.834 176.866 166.85 181.82 166.85Z" fill="#6EF8F1"/>
<path d="M388.227 152.81L388.187 152.811C387.872 152.815 387.621 153.074 387.625 153.389L387.775 164.148C387.78 164.463 388.038 164.714 388.353 164.71L388.393 164.709C388.708 164.705 388.959 164.446 388.955 164.131L388.805 153.372C388.8 153.058 388.542 152.806 388.227 152.81Z" fill="#01A1CA"/>
<path d="M276.32 167.12C279.297 167.12 281.71 164.707 281.71 161.73C281.71 158.753 279.297 156.34 276.32 156.34C273.343 156.34 270.93 158.753 270.93 161.73C270.93 164.707 273.343 167.12 276.32 167.12Z" fill="#05C9E7"/>
<path d="M447.34 159.09H400.6C400.103 159.09 399.7 159.493 399.7 159.99V160.05C399.7 160.547 400.103 160.95 400.6 160.95H447.34C447.837 160.95 448.24 160.547 448.24 160.05V159.99C448.24 159.493 447.837 159.09 447.34 159.09Z" fill="#01A1CA"/>
<path d="M394.711 160.99C396.683 160.987 398.281 160.63 398.28 160.194C398.279 159.757 396.68 159.407 394.709 159.41C392.737 159.413 391.139 159.77 391.14 160.206C391.141 160.643 392.74 160.993 394.711 160.99Z" fill="#01A1CA"/>
<path d="M39.801 175.187C39.3728 175.625 39.1283 176.081 39.2547 176.204C39.3812 176.328 39.8308 176.072 40.259 175.634C40.6872 175.195 40.9317 174.739 40.8052 174.616C40.6787 174.492 40.2291 174.748 39.801 175.187Z" fill="#01A1CA"/>
<path d="M511.91 229.71C511.792 229.801 511.696 229.917 511.63 230.051C511.564 230.184 511.53 230.331 511.53 230.48L511.54 253.35C511.541 253.434 511.526 253.517 511.494 253.594C511.463 253.672 511.416 253.742 511.356 253.802C511.297 253.861 511.226 253.909 511.147 253.941C511.069 253.973 510.985 253.99 510.9 253.99H494.49C494.291 253.99 494.1 253.911 493.96 253.77C493.819 253.63 493.74 253.439 493.74 253.24L493.75 180.55C493.75 180.277 493.855 180.014 494.044 179.818C494.232 179.622 494.489 179.508 494.76 179.5C507.387 179.12 518.103 178.983 526.91 179.09C533.843 179.183 539.423 181.447 543.65 185.88C546.603 188.98 548.23 192.813 548.53 197.38C548.837 202.227 548.8 206.903 548.42 211.41C548.133 214.863 546.673 218.163 544.04 221.31C540.44 225.62 535.09 228.16 529.54 228.96C523.687 229.813 518.157 229.967 512.95 229.42C512.563 229.38 512.217 229.477 511.91 229.71ZM511.41 195.46L511.51 213.46C511.51 213.717 511.612 213.964 511.794 214.146C511.976 214.328 512.223 214.43 512.48 214.43L523.93 214.37C524.827 214.366 525.713 214.182 526.54 213.828C527.367 213.474 528.117 212.957 528.747 212.307C529.378 211.657 529.877 210.886 530.215 210.039C530.554 209.192 530.725 208.285 530.72 207.37L530.68 201.35C530.669 199.506 529.942 197.742 528.658 196.444C527.373 195.147 525.637 194.422 523.83 194.43L512.38 194.49C512.123 194.49 511.876 194.592 511.694 194.774C511.512 194.956 511.41 195.203 511.41 195.46Z" fill="#3B3B3B"/>
<path d="M465.79 219.97C465.79 217.77 465.28 217.647 464.26 219.6C460.613 226.6 457.07 233.56 453.63 240.48C453.51 240.72 453.313 240.847 453.04 240.86C452.918 240.866 452.798 240.837 452.693 240.777C452.589 240.716 452.504 240.627 452.45 240.52L441.32 218.95C440.42 217.197 439.97 217.307 439.97 219.28L440 254C440.007 254.5 439.757 254.75 439.25 254.75L422.21 254.81C422.054 254.81 421.903 254.747 421.793 254.634C421.682 254.522 421.62 254.369 421.62 254.21L421.5 181.27C421.5 181.189 421.531 181.112 421.587 181.054C421.643 180.996 421.72 180.963 421.8 180.96L436.95 180.66C437.343 180.653 437.637 180.823 437.83 181.17L452.48 207.8C452.52 207.873 452.579 207.933 452.651 207.975C452.723 208.016 452.805 208.038 452.888 208.037C452.971 208.036 453.052 208.012 453.123 207.969C453.194 207.925 453.252 207.864 453.29 207.79L467.79 180.49C468.063 179.983 468.49 179.723 469.07 179.71L483.97 179.46C484.108 179.46 484.24 179.515 484.338 179.612C484.435 179.71 484.49 179.842 484.49 179.98L484.51 253.64C484.51 254.073 484.293 254.29 483.86 254.29L466.27 254.28C466.135 254.28 466.005 254.226 465.909 254.131C465.814 254.035 465.76 253.905 465.76 253.77L465.79 219.97Z" fill="#3B3B3B"/>
<path d="M373.9 245.35L371.72 255.06C371.533 255.887 371.02 256.31 370.18 256.33L354.27 256.78C354.111 256.784 353.953 256.751 353.809 256.683C353.665 256.615 353.539 256.514 353.44 256.387C353.342 256.261 353.275 256.113 353.243 255.955C353.212 255.798 353.218 255.635 353.26 255.48L373.11 183.02C373.134 182.931 373.185 182.851 373.257 182.794C373.329 182.736 373.418 182.703 373.51 182.7L391.98 181.94C393.207 181.887 393.96 182.46 394.24 183.66C395.48 188.93 397.23 193.86 398.62 198.99C400.607 206.39 402.637 213.433 404.71 220.12C405.41 222.393 406.063 224.673 406.67 226.96C407.277 229.247 407.933 231.513 408.64 233.76C410.62 240.06 412.553 246.72 414.44 253.74C414.707 254.733 414.323 255.247 413.29 255.28L398.25 255.71C397.892 255.721 397.54 255.61 397.251 255.394C396.963 255.178 396.754 254.87 396.66 254.52L394.19 245.1C394.102 244.765 393.902 244.469 393.624 244.262C393.347 244.055 393.006 243.949 392.66 243.96L374.85 244.57C374.626 244.579 374.411 244.66 374.24 244.801C374.068 244.942 373.948 245.135 373.9 245.35ZM377.94 228.22C377.914 228.319 377.911 228.422 377.931 228.522C377.952 228.622 377.995 228.716 378.058 228.797C378.121 228.877 378.202 228.942 378.294 228.986C378.387 229.03 378.488 229.052 378.59 229.05L389.45 228.95C389.551 228.948 389.65 228.922 389.739 228.876C389.829 228.829 389.906 228.763 389.966 228.682C390.026 228.601 390.066 228.507 390.084 228.408C390.102 228.309 390.098 228.207 390.07 228.11L384.47 208.39C384.43 208.252 384.346 208.131 384.23 208.045C384.115 207.959 383.975 207.914 383.831 207.915C383.688 207.916 383.548 207.964 383.434 208.051C383.32 208.139 383.238 208.261 383.2 208.4L377.94 228.22Z" fill="#3B3B3B"/>
<path d="M337.03 221.39C337.01 221.428 336.999 221.469 336.996 221.511C336.994 221.554 337 221.596 337.015 221.636C337.031 221.676 337.054 221.712 337.084 221.742C337.114 221.772 337.15 221.795 337.19 221.81C342.983 223.837 346.643 227.447 348.17 232.64C350.4 240.24 347.38 248.47 341.24 253.41C338.793 255.377 335.857 256.643 332.43 257.21C328.85 257.797 325.46 258.093 322.26 258.1C312.587 258.12 302.967 258.353 293.4 258.8C293.225 258.809 293.05 258.783 292.885 258.722C292.72 258.661 292.57 258.566 292.442 258.445C292.315 258.323 292.214 258.177 292.145 258.014C292.075 257.852 292.04 257.677 292.04 257.5L292.23 186.96C292.23 186.485 292.417 186.029 292.75 185.691C293.082 185.352 293.535 185.158 294.01 185.15C304.603 184.963 315.267 184.777 326 184.59C329.307 184.537 332.88 185.34 336.72 187C340.1 188.453 342.82 190.653 344.88 193.6C348.84 199.25 349.59 209.51 344.55 215.33C342.583 217.603 340.377 219.33 337.93 220.51C337.537 220.703 337.237 220.997 337.03 221.39ZM310.22 201.2L310.38 213.14C310.383 213.254 310.408 213.367 310.454 213.471C310.5 213.576 310.566 213.67 310.649 213.749C310.732 213.828 310.829 213.89 310.936 213.931C311.042 213.973 311.156 213.993 311.27 213.99L323.38 213.83C324.26 213.817 325.128 213.633 325.936 213.29C326.744 212.946 327.475 212.45 328.088 211.829C328.701 211.208 329.183 210.474 329.508 209.669C329.833 208.865 329.993 208.005 329.98 207.14V206.64C329.967 205.774 329.781 204.92 329.432 204.125C329.084 203.331 328.579 202.611 327.948 202.009C327.316 201.406 326.57 200.932 325.752 200.613C324.934 200.294 324.06 200.136 323.18 200.15L311.08 200.32C310.966 200.321 310.853 200.345 310.748 200.39C310.643 200.435 310.548 200.5 310.468 200.582C310.388 200.663 310.325 200.76 310.282 200.866C310.24 200.972 310.219 201.086 310.22 201.2ZM310 229.81L310.28 242.23C310.283 242.342 310.307 242.452 310.352 242.554C310.397 242.656 310.462 242.748 310.543 242.825C310.624 242.902 310.719 242.963 310.823 243.003C310.927 243.043 311.038 243.063 311.15 243.06L324.25 242.76C325.05 242.741 325.838 242.557 326.569 242.218C327.3 241.879 327.96 241.391 328.512 240.783C329.063 240.175 329.496 239.458 329.783 238.673C330.071 237.888 330.21 237.051 330.19 236.21L330.16 234.91C330.121 233.211 329.443 231.596 328.275 230.421C327.107 229.245 325.544 228.604 323.93 228.64L310.83 228.94C310.718 228.942 310.608 228.967 310.506 229.012C310.404 229.057 310.312 229.122 310.235 229.203C310.158 229.284 310.097 229.379 310.057 229.483C310.017 229.587 309.997 229.698 310 229.81Z" fill="#3B3B3B"/>
<path d="M271.55 223.13C277.41 225.23 282.22 229.69 282.92 235.88C283.507 241.127 282.353 245.913 279.46 250.24C276.15 255.2 270.76 258.8 264.76 259.15C262.04 259.31 259.41 259.68 256.71 259.7C246.85 259.78 237.123 260.08 227.53 260.6C227.363 260.611 227.198 260.564 227.061 260.468C226.925 260.371 226.825 260.231 226.78 260.07C226.7 259.803 226.66 259.537 226.66 259.27C226.533 235.203 226.467 211.167 226.46 187.16C226.46 186.979 226.531 186.805 226.659 186.676C226.786 186.546 226.959 186.473 227.14 186.47C235.587 186.277 243.917 186.09 252.13 185.91C256.137 185.823 259.863 185.91 263.31 186.17C266.977 186.45 270.553 187.657 274.04 189.79C279.84 193.34 283.02 200.91 282.11 207.77C281.25 214.303 277.713 219.133 271.5 222.26C271.415 222.3 271.345 222.364 271.297 222.445C271.249 222.525 271.226 222.618 271.232 222.712C271.237 222.805 271.27 222.895 271.327 222.97C271.384 223.044 271.461 223.1 271.55 223.13ZM244.21 202.47L244.51 213.97C244.52 214.279 244.652 214.57 244.877 214.782C245.102 214.994 245.401 215.108 245.71 215.1L258.51 214.77C259.262 214.75 260.004 214.585 260.691 214.282C261.379 213.98 261.999 213.547 262.518 213.009C263.036 212.47 263.441 211.836 263.711 211.143C263.981 210.45 264.11 209.712 264.09 208.97L264.02 206.43C263.981 204.933 263.341 203.512 262.24 202.481C261.14 201.45 259.668 200.892 258.15 200.93L245.35 201.27C245.196 201.274 245.045 201.308 244.904 201.37C244.764 201.433 244.637 201.522 244.531 201.634C244.426 201.745 244.343 201.876 244.287 202.02C244.232 202.163 244.206 202.316 244.21 202.47ZM244.4 230.95L244.63 244.17C244.635 244.417 244.738 244.653 244.916 244.825C245.094 244.998 245.332 245.093 245.58 245.09L257.95 244.87C258.857 244.854 259.753 244.661 260.585 244.3C261.418 243.939 262.171 243.418 262.801 242.767C263.432 242.116 263.927 241.348 264.26 240.506C264.593 239.664 264.756 238.765 264.74 237.86L264.72 236.54C264.686 234.714 263.926 232.977 262.608 231.709C261.29 230.442 259.521 229.748 257.69 229.78L245.32 229.99C245.197 229.993 245.075 230.019 244.962 230.069C244.849 230.119 244.747 230.19 244.661 230.279C244.576 230.368 244.509 230.474 244.464 230.589C244.419 230.704 244.397 230.826 244.4 230.95Z" fill="#3B3B3B"/>
<path d="M213.67 187.99L213.81 259.84C213.81 260.132 213.696 260.412 213.493 260.622C213.289 260.831 213.012 260.952 212.72 260.96L196.74 261.39C196.59 261.394 196.442 261.368 196.302 261.314C196.163 261.259 196.036 261.177 195.929 261.073C195.821 260.968 195.736 260.844 195.678 260.706C195.62 260.568 195.59 260.42 195.59 260.27L195.47 188.69C195.47 188.401 195.581 188.124 195.78 187.915C195.979 187.707 196.252 187.583 196.54 187.57L212.5 186.87C212.651 186.863 212.802 186.887 212.944 186.94C213.086 186.994 213.215 187.075 213.324 187.18C213.434 187.285 213.521 187.41 213.58 187.55C213.64 187.689 213.67 187.839 213.67 187.99Z" fill="#3B3B3B"/>
<path d="M183.96 246.74L184.22 260.72C184.223 260.942 184.139 261.156 183.985 261.317C183.832 261.478 183.622 261.572 183.4 261.58L139.39 262.8C139.277 262.803 139.164 262.783 139.059 262.741C138.953 262.7 138.857 262.637 138.776 262.558C138.695 262.479 138.631 262.384 138.587 262.28C138.543 262.176 138.52 262.063 138.52 261.95L138.45 190.02C138.45 189.796 138.538 189.582 138.695 189.422C138.853 189.263 139.066 189.173 139.29 189.17L155.61 188.93C155.722 188.929 155.834 188.95 155.938 188.992C156.043 189.034 156.138 189.096 156.218 189.175C156.298 189.254 156.361 189.349 156.404 189.452C156.448 189.556 156.47 189.668 156.47 189.78L156.51 245.95C156.51 246.064 156.533 246.177 156.577 246.282C156.622 246.387 156.687 246.483 156.769 246.562C156.852 246.641 156.949 246.703 157.056 246.744C157.162 246.785 157.276 246.804 157.39 246.8L183.08 245.91C183.192 245.906 183.305 245.924 183.41 245.964C183.515 246.004 183.612 246.064 183.693 246.141C183.775 246.218 183.841 246.311 183.887 246.414C183.933 246.517 183.957 246.628 183.96 246.74Z" fill="#3B3B3B"/>
<path d="M66.05 244.04L66.1 212.33C66.1069 206.965 68.1937 201.811 71.9216 197.953C75.6496 194.094 80.7282 191.832 86.09 191.64L106.32 190.92C109.105 190.822 111.881 191.286 114.482 192.285C117.083 193.284 119.457 194.797 121.46 196.734C123.463 198.671 125.055 200.992 126.141 203.559C127.227 206.125 127.784 208.884 127.78 211.67L127.74 243.4C127.735 248.77 125.647 253.929 121.915 257.79C118.182 261.652 113.097 263.914 107.73 264.1L87.49 264.79C84.7069 264.885 81.933 264.419 79.3341 263.419C76.7352 262.419 74.3644 260.905 72.3633 258.968C70.3622 257.032 68.7719 254.712 67.6872 252.147C66.6025 249.582 66.0457 246.825 66.05 244.04ZM109.01 214.72C109.01 212.604 108.169 210.574 106.673 209.077C105.176 207.581 103.146 206.74 101.03 206.74H92.95C90.8336 206.74 88.8038 207.581 87.3073 209.077C85.8108 210.574 84.97 212.604 84.97 214.72V240.72C84.97 242.837 85.8108 244.866 87.3073 246.363C88.8038 247.859 90.8336 248.7 92.95 248.7H101.03C103.146 248.7 105.176 247.859 106.673 246.363C108.169 244.866 109.01 242.837 109.01 240.72V214.72Z" fill="#3B3B3B"/>
<path d="M33.52 249.85C34.26 250.13 35.06 250.26 35.92 250.24C42.3533 250.047 48.6467 249.947 54.8 249.94C55.1642 249.94 55.5192 250.05 55.8177 250.256C56.1161 250.461 56.3436 250.752 56.47 251.09C58.14 255.58 60.22 259.7 61.14 264.43C61.2067 264.777 61.0633 264.95 60.71 264.95C54.0567 264.957 46.3267 265.227 37.52 265.76C34.28 265.96 30.79 265.793 27.05 265.26C23.5033 264.753 20.3733 263.397 17.66 261.19C13.3133 257.65 11.0367 252.737 10.83 246.45C10.3833 233.123 10.3333 222.207 10.68 213.7C11.06 204.58 15.5967 198.327 24.29 194.94C26.3633 194.127 30.3267 193.59 36.18 193.33C43.88 192.99 51.9667 192.713 60.44 192.5C60.5219 192.497 60.6034 192.514 60.6773 192.549C60.7511 192.585 60.8151 192.638 60.8635 192.704C60.9119 192.771 60.9433 192.848 60.9549 192.929C60.9665 193.01 60.9579 193.093 60.93 193.17L55.76 207.83C55.6066 208.277 55.2933 208.507 54.82 208.52C48.68 208.727 42.5933 208.83 36.56 208.83C34.7133 208.83 33.1233 209.34 31.79 210.36C29.9367 211.773 29.0067 213.983 29 216.99C28.9867 225.43 28.9867 234.023 29 242.77C29.0067 246.337 30.5133 248.697 33.52 249.85Z" fill="#3B3B3B"/>
<path d="M529.28 286.26C526.527 286.027 523.953 286.137 521.56 286.59C520.173 286.843 520.03 286.53 521.13 285.65C522.53 284.53 523.07 283.43 523.05 281.62C522.977 275.187 523.11 268.877 523.45 262.69C523.49 261.97 523.81 261.41 524.41 261.01C524.637 260.85 524.893 260.743 525.18 260.69C525.647 260.603 525.9 260.797 525.94 261.27C526.48 268.337 527.017 275.227 527.55 281.94C527.663 283.367 528.29 284.703 529.43 285.95C529.455 285.979 529.47 286.015 529.475 286.053C529.48 286.09 529.474 286.129 529.458 286.162C529.442 286.196 529.416 286.223 529.385 286.24C529.353 286.258 529.316 286.265 529.28 286.26Z" fill="#1C2A3B" fill-opacity="0.992"/>
<path d="M473.36 315.19C469.687 310.563 466.693 305.707 464.38 300.62C464.28 300.4 463.987 300.227 463.5 300.1C463.527 299.92 463.517 299.747 463.47 299.58C463.43 299.42 463.347 299.293 463.22 299.2C458.77 295.74 455.13 289.75 455.91 284.21C456.663 278.863 459.667 275.263 464.92 273.41C466.367 272.897 468.59 272.703 471.59 272.83C473.77 272.923 475.687 273.467 477.34 274.46C480.913 276.607 483.413 279.483 484.84 283.09C486.913 288.357 487.017 293.907 485.15 299.74C483.283 305.56 479.353 310.71 473.36 315.19Z" fill="#6EF8F1"/>
<path d="M497.582 273L497.522 273.001C497.208 273.005 496.956 273.264 496.96 273.579L497.04 279.258C497.044 279.573 497.303 279.825 497.618 279.82L497.678 279.819C497.992 279.815 498.244 279.556 498.24 279.241L498.16 273.562C498.156 273.247 497.897 272.996 497.582 273Z" fill="#1C2A3B" fill-opacity="0.992"/>
<path d="M295.28 293.38C300.521 293.38 304.77 289.131 304.77 283.89C304.77 278.649 300.521 274.4 295.28 274.4C290.039 274.4 285.79 278.649 285.79 283.89C285.79 289.131 290.039 293.38 295.28 293.38Z" fill="#6EF8F1"/>
<path d="M131.2 282.42C130.613 287.78 129.457 292.97 127.73 297.99C127.39 298.983 127.09 300.64 126.83 302.96C126.703 304.04 126.743 305.713 126.95 307.98C127.123 309.953 127.007 311.84 126.6 313.64L113.63 302.5C115.67 294.373 117.147 286.413 118.06 278.62L126.36 277.14C126.506 277.116 126.655 277.131 126.794 277.184C126.933 277.236 127.055 277.325 127.15 277.44L131.2 282.42Z" fill="#05C9E7"/>
<path d="M40.04 277.73L40.41 277.78C40.5065 277.79 40.5959 277.837 40.6606 277.911C40.7253 277.984 40.7608 278.081 40.76 278.18C40.76 284.347 40.5567 290.35 40.15 296.19C40.1433 296.29 40.09 296.34 39.99 296.34H39.98C39.82 296.347 39.7333 296.27 39.72 296.11C39.1533 290.597 39.08 284.62 39.5 278.18C39.5267 277.847 39.7067 277.697 40.04 277.73Z" fill="#1C2A3B" fill-opacity="0.992"/>
<path d="M118.06 278.62C117.147 286.413 115.67 294.373 113.63 302.5C107.11 296.247 101.807 289.663 97.72 282.75C97.6513 282.635 97.612 282.504 97.6055 282.37C97.599 282.236 97.6256 282.102 97.6829 281.981C97.7401 281.859 97.8264 281.754 97.934 281.674C98.0416 281.593 98.1673 281.541 98.3 281.52L118.06 278.62Z" fill="#01A1CA"/>
<path d="M323.397 284.602L317.877 279.12C317.708 278.952 317.436 278.953 317.269 279.122L317.241 279.15C317.073 279.319 317.074 279.591 317.243 279.758L322.763 285.24C322.932 285.408 323.204 285.407 323.371 285.238L323.399 285.21C323.567 285.041 323.566 284.769 323.397 284.602Z" fill="#1C2A3B" fill-opacity="0.992"/>
<path d="M200.98 304.52C200.147 304.98 199.3 304.8 198.44 303.98C198.707 302.38 198.267 301.24 197.12 300.56C196.807 300.38 196.55 300.14 196.35 299.84C192.863 294.68 192.76 289.793 196.04 285.18C200.46 278.95 211.29 277.77 216.05 284.3C220.37 290.23 219.01 298.53 212.85 302.38C210.077 304.113 206.307 304.463 201.54 303.43C201.373 303.397 201.233 303.443 201.12 303.57C200.953 303.75 200.907 304.067 200.98 304.52Z" fill="#A4FCF0"/>
<path d="M402.79 292.07C405.673 292.07 408.01 289.733 408.01 286.85C408.01 283.967 405.673 281.63 402.79 281.63C399.907 281.63 397.57 283.967 397.57 286.85C397.57 289.733 399.907 292.07 402.79 292.07Z" fill="#05C9E7"/>
<path d="M131.2 282.42C132.967 284.42 134.69 286.323 136.37 288.13C145.677 298.157 156.5 306.143 168.84 312.09C170.493 312.883 172.04 313.753 173.48 314.7C172.213 318.68 171.04 321.177 169.96 322.19C166.953 325.01 164.343 328.147 162.13 331.6C160.497 331.313 158.7 330.627 156.74 329.54C155.77 328.99 154.71 329.03 153.79 328.65C143.903 324.523 134.84 319.52 126.6 313.64C127.007 311.84 127.123 309.953 126.95 307.98C126.743 305.713 126.703 304.04 126.83 302.96C127.09 300.64 127.39 298.983 127.73 297.99C129.457 292.97 130.613 287.78 131.2 282.42Z" fill="#0FEBFB"/>
<path d="M327.478 289.645C328.802 290.906 329.992 291.805 330.137 291.653C330.282 291.501 329.326 290.356 328.002 289.095C326.678 287.834 325.488 286.935 325.343 287.087C325.198 287.239 326.154 288.385 327.478 289.645Z" fill="#1C2A3B" fill-opacity="0.992"/>
<path d="M522.91 308.42C523.157 308.087 523.01 307.713 522.47 307.3C522.177 307.08 521.693 307.037 521.02 307.17C512.59 305.29 509.88 296.02 513.55 289.05C513.826 288.526 514.3 288.132 514.866 287.956C515.432 287.78 516.045 287.835 516.57 288.11C522.27 291.123 528.17 291.273 534.27 288.56C534.498 288.459 534.743 288.405 534.992 288.399C535.241 288.394 535.488 288.438 535.72 288.53C535.951 288.621 536.163 288.757 536.341 288.93C536.52 289.104 536.662 289.311 536.76 289.54C540.527 298.407 538.1 304.623 529.48 308.19C527.76 308.903 525.57 308.98 522.91 308.42Z" fill="#016887"/>
<path d="M86.76 339.64C86.7666 339.724 86.7934 339.805 86.8382 339.876C86.883 339.948 86.9444 340.007 87.0172 340.049C87.09 340.092 87.1719 340.116 87.256 340.119C87.3401 340.123 87.4238 340.106 87.5 340.07C93.7333 337.09 98.7967 337.857 102.69 342.37C104.29 344.223 105.307 346.273 105.74 348.52C106.72 353.61 104.5 357.44 100.32 360.29C95.76 363.41 89.46 363.49 85.42 359.68C80.46 355.01 80.25 347.26 84.65 342.32C84.9233 342.013 85.0567 341.653 85.05 341.24C84.8833 326.087 84.8967 312.307 85.09 299.9C85.1233 298.087 85.3033 296.1 85.63 293.94C85.6367 293.9 85.62 293.873 85.58 293.86C85.5533 293.847 85.58 293.84 85.66 293.84C85.7333 293.847 85.77 293.887 85.77 293.96C85.97 303.267 86.18 312.317 86.4 321.11C86.56 327.3 86.37 333.56 86.76 339.64Z" fill="#01A1CA"/>
<path d="M252.78 312.58C257.69 312.58 261.67 308.6 261.67 303.69C261.67 298.78 257.69 294.8 252.78 294.8C247.87 294.8 243.89 298.78 243.89 303.69C243.89 308.6 247.87 312.58 252.78 312.58Z" fill="#6EF8F1"/>
<path d="M59.21 311.49C63.2693 311.49 66.56 308.199 66.56 304.14C66.56 300.081 63.2693 296.79 59.21 296.79C55.1507 296.79 51.86 300.081 51.86 304.14C51.86 308.199 55.1507 311.49 59.21 311.49Z" fill="#0FEBFB"/>
<path d="M463.5 300.1C463.987 300.227 464.28 300.4 464.38 300.62C466.693 305.707 469.687 310.563 473.36 315.19C466.087 320.623 459.213 324.157 452.74 325.79C450.14 326.443 447.533 327.09 444.92 327.73C442.327 328.37 439.687 328.823 437 329.09C433.253 329.463 429.503 329.827 425.75 330.18C422.79 330.467 418.893 330.467 414.06 330.18C414.927 329.167 415.657 328.047 416.25 326.82C416.863 325.533 417.583 324.45 418.41 323.57C421.477 320.29 423.4 316.607 424.18 312.52C435.06 312.127 445 309.88 454 305.78C455.387 305.153 458.553 303.26 463.5 300.1Z" fill="#A4FCF0"/>
<path d="M198.44 303.98C199.3 304.8 200.147 304.98 200.98 304.52L201.06 322.25C201.062 322.496 201.147 322.735 201.301 322.929C201.454 323.123 201.669 323.26 201.91 323.32L223.27 328.5C221.843 330.867 220.447 333.22 219.08 335.56C218.053 337.313 216.863 338.84 215.51 340.14C214.163 341.447 212.737 342.783 211.23 344.15C209.71 343.683 208.053 343.33 206.26 343.09C204.327 342.837 202.673 342.527 201.3 342.16C196.61 340.91 191.87 340.23 187.31 338.85C184.04 337.85 180.65 337.22 177.28 336.23C172.427 334.803 167.377 333.26 162.13 331.6C164.343 328.147 166.953 325.01 169.96 322.19C171.04 321.177 172.213 318.68 173.48 314.7C176.23 315.39 178.69 316.77 181.24 317.5C184.3 318.37 187.21 319.7 190.3 320.35C192.74 320.857 195.197 321.43 197.67 322.07C197.779 322.097 197.893 322.099 198.004 322.076C198.114 322.053 198.217 322.004 198.306 321.935C198.395 321.865 198.467 321.777 198.516 321.675C198.565 321.574 198.59 321.463 198.59 321.35L198.44 303.98Z" fill="#6EF8F1"/>
<path d="M11.54 316.9C14.5775 316.9 17.04 314.437 17.04 311.4C17.04 308.362 14.5775 305.9 11.54 305.9C8.50241 305.9 6.03998 308.362 6.03998 311.4C6.03998 314.437 8.50241 316.9 11.54 316.9Z" fill="#01A1CA"/>
<path d="M522.91 308.42C523.023 326.147 523.02 337.423 522.9 342.25C522.46 359.557 522.147 376.863 521.96 394.17C521.953 394.277 521.893 394.333 521.78 394.34C521.667 394.34 521.607 394.283 521.6 394.17C521.353 388.37 521.21 382.563 521.17 376.75C521.023 353.637 520.973 330.443 521.02 307.17C521.693 307.037 522.177 307.08 522.47 307.3C523.01 307.713 523.157 308.087 522.91 308.42Z" fill="#01A1CA"/>
<path d="M498.167 307.711L498.127 307.711C497.784 307.715 497.51 307.995 497.513 308.337L497.827 338.276C497.83 338.618 498.111 338.893 498.453 338.889L498.493 338.889C498.836 338.885 499.11 338.605 499.107 338.262L498.793 308.324C498.79 307.982 498.509 307.707 498.167 307.711Z" fill="#1C2A3B" fill-opacity="0.992"/>
<path d="M362.32 310.79C363.38 312.01 363.997 312.933 364.17 313.56C364.62 315.24 364.36 317.23 363.77 319.08C362.777 322.193 361.923 325.45 361.21 328.85C360.237 328.963 359.02 329.023 357.56 329.03C356.267 329.037 355.067 329.147 353.96 329.36C349.14 330.28 344.327 331.187 339.52 332.08C336.387 332.66 330.767 334.41 322.66 337.33C322.433 337.037 322.26 336.417 322.14 335.47C321.66 331.56 316.75 329.82 315.83 325.81C315.403 323.97 315.487 322.01 316.08 319.93C321.727 317.59 326.29 316.04 329.77 315.28C332.177 314.753 334.15 314.3 335.69 313.92C341.18 312.54 346.52 311.97 352 311.22C355.54 310.733 358.98 310.59 362.32 310.79Z" fill="#0FEBFB"/>
<path d="M362.32 310.79L424.18 312.52C423.4 316.607 421.477 320.29 418.41 323.57C417.583 324.45 416.863 325.533 416.25 326.82C415.657 328.047 414.927 329.167 414.06 330.18C405.5 329.86 396.94 329.02 388.42 328.98C382.19 328.95 375.92 328.36 369.74 328.55C367.067 328.63 364.223 328.73 361.21 328.85C361.923 325.45 362.777 322.193 363.77 319.08C364.36 317.23 364.62 315.24 364.17 313.56C363.997 312.933 363.38 312.01 362.32 310.79Z" fill="#6EF8F1"/>
<path d="M59.4616 312.37L59.4016 312.37C58.6892 312.367 58.1096 312.943 58.1071 313.655L57.9529 357.835C57.9504 358.548 58.526 359.127 59.2384 359.13L59.2984 359.13C60.0108 359.132 60.5904 358.557 60.5929 357.844L60.7471 313.665C60.7496 312.952 60.1741 312.373 59.4616 312.37Z" fill="#01A1CA"/>
<path d="M316.08 319.93C315.487 322.01 315.403 323.97 315.83 325.81C316.75 329.82 321.66 331.56 322.14 335.47C322.26 336.417 322.433 337.037 322.66 337.33C320.453 338.183 318.233 339.15 316 340.23C314.71 340.86 312.79 341.22 311.32 340.63C304.4 337.83 297.743 335.2 291.35 332.74C291.246 332.7 291.155 332.632 291.086 332.544C291.017 332.457 290.973 332.352 290.959 332.242C290.945 332.131 290.961 332.019 291.005 331.916C291.049 331.814 291.12 331.725 291.21 331.66C292.077 331.027 292.983 330.457 293.93 329.95C299.55 326.91 305.46 324.057 311.66 321.39C313 320.81 314.473 320.323 316.08 319.93Z" fill="#05C9E7"/>
<path d="M223.27 328.5L286.75 340.76C286.963 344.58 287.717 347.497 289.01 349.51C291.55 353.443 294.013 357.643 296.4 362.11C290.707 360.73 285.227 359.407 279.96 358.14C277.633 357.58 275.3 357.083 272.96 356.65C269.8 356.07 266.74 355.16 263.56 354.51C255.5 352.837 247.463 351.147 239.45 349.44C235.14 348.52 230.88 347.98 226.52 346.98C221.54 345.84 216.39 345.28 211.23 344.15C212.737 342.783 214.163 341.447 215.51 340.14C216.863 338.84 218.053 337.313 219.08 335.56C220.447 333.22 221.843 330.867 223.27 328.5Z" fill="#A4FCF0"/>
<path d="M458.45 381.1C458.45 381.108 458.447 381.116 458.441 381.121C458.436 381.127 458.428 381.13 458.42 381.13H458.4C457.895 381.121 457.403 379.587 457.031 376.866C456.66 374.144 456.44 370.457 456.42 366.61L456.32 348.29C456.31 346.377 456.35 344.482 456.437 342.714C456.524 340.947 456.657 339.341 456.828 337.989C456.999 336.637 457.204 335.566 457.433 334.837C457.662 334.108 457.909 333.735 458.16 333.74H458.18C458.188 333.74 458.196 333.743 458.201 333.749C458.207 333.754 458.21 333.762 458.21 333.77L458.45 381.1Z" fill="#05C9E7"/>
<path d="M286.75 340.76C288.977 341.227 291.153 341.86 293.28 342.66C294.29 343.04 295.3 342.94 296.22 343.2C310.807 347.3 325.21 352.347 339.43 358.34C338.563 360.2 338.313 362.177 338.68 364.27C339.193 367.197 339.453 368.707 339.46 368.8C339.773 372.293 340.31 375.923 341.07 379.69C326.243 372.037 311.353 366.177 296.4 362.11C294.013 357.643 291.55 353.443 289.01 349.51C287.717 347.497 286.963 344.58 286.75 340.76Z" fill="#6EF8F1"/>
<path d="M147.55 345.41C147.76 345.542 147.942 345.715 148.086 345.918C148.229 346.121 148.332 346.35 148.386 346.592C148.441 346.835 148.448 347.086 148.405 347.331C148.363 347.576 148.273 347.81 148.14 348.02L147.7 348.72C146.941 349.918 145.721 350.756 144.307 351.049C142.893 351.341 141.402 351.065 140.16 350.28L139.62 349.94C139.004 349.552 138.467 349.05 138.041 348.463C137.616 347.876 137.309 347.216 137.139 346.52C136.969 345.824 136.939 345.107 137.051 344.408C137.162 343.71 137.414 343.044 137.79 342.45L138.23 341.76C138.362 341.55 138.535 341.367 138.738 341.224C138.941 341.08 139.17 340.978 139.413 340.923C139.655 340.869 139.906 340.862 140.151 340.905C140.396 340.947 140.63 341.037 140.84 341.17L147.55 345.41Z" fill="#05C9E7"/>
<path d="M402.5 361.31C402.247 360.177 401.907 359.53 401.48 359.37C401.707 359.383 401.88 359.273 402 359.04C402.06 358.933 402.087 358.817 402.08 358.69C401.82 354.003 403.09 350.463 405.89 348.07C410.03 344.55 416.35 344.67 420.88 347.67C426.38 351.3 426.63 357.93 422.85 363.11C420.63 366.16 414.55 368.92 410.45 367.45C408.637 366.81 407 365.73 405.54 364.21C404.493 363.123 403.48 362.157 402.5 361.31Z" fill="#A4FCF0"/>
<path d="M42.56 396.37C42.5651 396.524 42.6292 396.67 42.7391 396.778C42.8489 396.886 42.996 396.948 43.15 396.95C51.86 397.05 60.39 396.82 69.14 397.3C78.0933 397.787 85.86 398.093 92.44 398.22C93.2867 398.233 94.1367 398.12 94.99 397.88C95.41 397.767 95.51 397.9 95.29 398.28C94.97 398.813 94.5 399.08 93.88 399.08C77.1533 398.967 59.6733 399.013 41.44 399.22C40.68 399.227 40.2967 398.85 40.29 398.09C40.09 381.777 40.1767 365.247 40.55 348.5C40.55 348.44 40.5833 348.407 40.65 348.4L40.91 348.39C40.9567 348.39 40.98 348.41 40.98 348.45C41.2 351.65 41.91 354.76 41.93 357.96C42.01 370.493 42.22 383.297 42.56 396.37Z" fill="#05C9E7"/>
<path d="M185.45 403.88C184.317 406.093 182.9 407.527 181.2 408.18C178.293 409.3 175.397 410.407 172.51 411.5C171.603 411.84 170.11 411.847 168.03 411.52C164.21 403.433 162.55 394.84 163.05 385.74C163.163 383.74 163.527 381.1 164.14 377.82C164.733 374.653 165.493 371.643 166.42 368.79C168.367 362.797 171.017 356.81 174.37 350.83C174.414 350.75 174.48 350.685 174.561 350.644C174.641 350.603 174.732 350.588 174.82 350.6C180.167 351.233 185.533 352.447 190.92 354.24C191.24 354.347 191.327 354.553 191.18 354.86C186.793 363.9 183.793 372 182.18 379.16C181.427 382.5 181.117 386.283 181.25 390.51C181.417 395.843 182.817 400.3 185.45 403.88Z" fill="#0FEBFB"/>
<path d="M339.43 358.34C347.537 358.807 354.06 359.027 359 359C373.147 358.913 387.307 359.037 401.48 359.37C401.907 359.53 402.247 360.177 402.5 361.31L352.34 361.53C350.867 361.537 350.777 361.893 352.07 362.6C358.617 366.173 364.137 370.747 368.63 376.32C367.803 383.853 364.14 388.26 357.64 389.54C356.987 389.807 356.297 389.953 355.57 389.98C354.943 390 354.31 389.783 353.67 389.33C349.157 386.097 344.957 382.883 341.07 379.69C340.31 375.923 339.773 372.293 339.46 368.8C339.453 368.707 339.193 367.197 338.68 364.27C338.313 362.177 338.563 360.2 339.43 358.34Z" fill="#0FEBFB"/>
<path d="M257.9 377.61C256.067 382.423 252.897 384.357 248.39 383.41C241.49 381.97 239.75 372.86 246.21 369.5C248.63 368.24 250.957 368.087 253.19 369.04C255.203 369.9 256.823 371.717 258.05 374.49C258.183 374.79 258.413 374.943 258.74 374.95C262.113 375.03 265.377 375.08 268.53 375.1C270.25 375.11 272.17 375.44 273.82 375.9C276.113 376.533 276.07 376.887 273.69 376.96C268.717 377.1 263.763 377.107 258.83 376.98C258.37 376.967 258.06 377.177 257.9 377.61Z" fill="#6EF8F1"/>
<path d="M368.63 376.32C368.25 377.793 368.377 378.53 369.01 378.53C369.043 378.53 369.075 378.523 369.104 378.508C369.133 378.493 369.157 378.472 369.176 378.445C369.195 378.419 369.207 378.388 369.211 378.356C369.215 378.323 369.211 378.291 369.2 378.26C369.153 378.147 369.14 378.04 369.16 377.94C369.187 377.8 369.26 377.773 369.38 377.86C376.07 382.99 379.42 391 379.42 399.37C379.427 405.483 376.61 409.967 370.97 412.82C370.197 413.207 369.363 413.43 368.47 413.49C368.122 413.515 367.775 413.42 367.488 413.22C367.201 413.02 366.99 412.727 366.89 412.39C365.723 408.357 364.117 404.497 362.07 400.81C360.52 398.03 358.35 395.58 357.2 392.57C357.067 392.23 357.147 391.947 357.44 391.72C357.82 391.427 358.213 391.217 358.62 391.09C359.007 390.963 359.047 390.767 358.74 390.5L357.64 389.54C364.14 388.26 367.803 383.853 368.63 376.32Z" fill="#014E6E"/>
<path d="M458 400.87C462.744 400.87 466.59 397.024 466.59 392.28C466.59 387.536 462.744 383.69 458 383.69C453.256 383.69 449.41 387.536 449.41 392.28C449.41 397.024 453.256 400.87 458 400.87Z" fill="#6EF8F1"/>
<path d="M300.84 407.42C304.607 407.42 307.66 404.367 307.66 400.6C307.66 396.833 304.607 393.78 300.84 393.78C297.073 393.78 294.02 396.833 294.02 400.6C294.02 404.367 297.073 407.42 300.84 407.42Z" fill="#6EF8F1"/>
<path d="M342.577 399.891L342.537 399.891C342.095 399.885 341.732 400.238 341.726 400.68L341.414 423.037C341.408 423.479 341.761 423.842 342.203 423.848L342.243 423.849C342.685 423.855 343.048 423.502 343.054 423.06L343.366 400.702C343.372 400.261 343.019 399.898 342.577 399.891Z" fill="#1C2A3B" fill-opacity="0.992"/>
<path d="M185.45 403.88C186.98 405.35 188.2 406.72 190.06 407.72C195.81 410.79 199.88 409.36 205.43 407.1C205.723 406.981 206.037 406.922 206.353 406.929C206.669 406.935 206.98 407.007 207.266 407.138C207.553 407.269 207.81 407.458 208.02 407.692C208.231 407.926 208.391 408.201 208.49 408.5C209.67 411.98 208 416.05 205.77 418.93C200.97 425.13 193.11 428.45 185.35 425.99C177.46 423.49 172.35 418.58 168.03 411.52C170.11 411.847 171.603 411.84 172.51 411.5C175.397 410.407 178.293 409.3 181.2 408.18C182.9 407.527 184.317 406.093 185.45 403.88Z" fill="#6EF8F1"/>
<path d="M131.73 405.97H115.23C114.882 405.97 114.6 406.252 114.6 406.6V407.3C114.6 407.648 114.882 407.93 115.23 407.93H131.73C132.078 407.93 132.36 407.648 132.36 407.3V406.6C132.36 406.252 132.078 405.97 131.73 405.97Z" fill="#01A1CA"/>
<path d="M104.524 406.343L80.0051 406.557C79.6737 406.56 79.4074 406.831 79.4103 407.162L79.4107 407.202C79.4136 407.534 79.6845 407.8 80.0159 407.797L104.535 407.583C104.866 407.58 105.133 407.309 105.13 406.978L105.129 406.938C105.126 406.606 104.855 406.34 104.524 406.343Z" fill="#01A1CA"/>
<path d="M463.5 442.75L463.42 442.43C463.305 441.987 463.362 441.518 463.58 441.12C464.393 439.627 464.55 438.043 464.05 436.37C463.977 436.117 464.027 435.893 464.2 435.7C470.61 428.61 481.2 426.34 489.26 432.47C491.79 434.39 491.65 437.29 491.95 440.13C492.017 440.777 491.837 440.857 491.41 440.37C486.35 434.63 480.17 429.46 472.58 433.6C469.38 435.347 466.6 438.427 464.24 442.84C464.202 442.911 464.143 442.969 464.072 443.006C464 443.043 463.919 443.058 463.839 443.048C463.759 443.038 463.684 443.004 463.624 442.951C463.563 442.898 463.52 442.828 463.5 442.75Z" fill="#1C2A3B" fill-opacity="0.992"/>
</g>
<defs>
<clipPath id="clip0_1077_8816">
<rect width="557" height="427" fill="white"/>
</clipPath>
</defs>
</svg>
