<svg width="441" height="565" viewBox="0 0 441 565" fill="none" xmlns="http://www.w3.org/2000/svg">
<g clip-path="url(#clip0_1077_8727)">
<path d="M242.31 31.1899C243.617 33.5299 244.8 35.9066 245.86 38.3199C246.92 40.7399 248.03 42.4499 249.19 43.4499C250.783 44.8233 252.637 45.8366 254.75 46.4899C258.397 47.6099 262.163 48.5899 266.05 49.4299" stroke="#994939" stroke-width="2"/>
<path d="M266.05 49.4301L278.74 54.0601" stroke="#814237" stroke-width="2"/>
<path d="M278.74 54.0601C278.913 56.9601 279.033 59.7334 279.1 62.3801C279.167 64.9801 277.967 66.7267 275.5 67.6201" stroke="#994939" stroke-width="2"/>
<path d="M275.5 67.62L250.66 57.77" stroke="#8D827A" stroke-width="2"/>
<path d="M250.66 57.77C250.62 57.17 250.72 56.5667 250.96 55.96C251.093 55.6333 251.11 55.3 251.01 54.96C249.44 49.52 246.77 44.52 240.51 44.23C235.423 43.99 230.497 43.7233 225.73 43.43C223.89 43.3167 222.157 42.87 220.53 42.09C219.177 41.4433 217.87 40.2933 216.61 38.64C214.01 35.2533 211.313 32.04 208.52 29" stroke="#BC5037" stroke-width="2"/>
<path d="M308.21 88.39L275.5 67.62" stroke="#76827D" stroke-width="2"/>
<path d="M261.26 35.58C262.2 39.96 262.82 42.7266 263.12 43.88C263.553 45.5666 264.53 47.4166 266.05 49.43" stroke="#6B413A" stroke-width="2"/>
<path d="M356.54 158.53L349.57 158.72C349.23 158.733 348.917 158.647 348.63 158.46C347.13 157.5 346.17 156.03 344.56 155.14C342.44 153.96 339.66 153.02 338.46 150.75C336.587 147.177 333.953 144.573 330.56 142.94" stroke="#88C8CA" stroke-width="2"/>
<path d="M298.92 104.52C283.867 91.36 266.66 81.5334 247.3 75.04" stroke="#76827D" stroke-width="2"/>
<path d="M250.66 57.77L247.69 57.29" stroke="#99897B" stroke-width="2"/>
<path d="M247.69 57.29C234.543 53.3633 221.017 51.3867 207.11 51.36" stroke="#B79686" stroke-width="2"/>
<path d="M207.11 51.36C207.277 48.32 206.077 46.2433 203.51 45.13C201.95 44.45 200.127 44.2533 198.04 44.54C193.66 45.14 189.247 45.6234 184.8 45.99C179.53 46.43 173.54 46.29 172.2 40.01C171.573 37.0567 171.067 34.9333 170.68 33.64" stroke="#D16635" stroke-width="2"/>
<path d="M298.4 63.2201C297.907 62.9667 297.337 62.7634 296.69 62.6101C295.983 62.4367 295.413 62.2434 294.98 62.0301C289.593 59.3767 284.18 56.7201 278.74 54.0601" stroke="#6B413A" stroke-width="2"/>
<path d="M367.79 232C367.797 231.267 367.54 230.68 367.02 230.24C366.133 229.48 365.687 229.097 365.68 229.09C365.053 228.37 364.557 227.863 364.19 227.57C360.75 224.777 357.507 221.77 354.46 218.55C353.58 217.623 352.187 217.023 350.28 216.75" stroke="#C1E2E2" stroke-width="2"/>
<path d="M247.69 57.29C248.49 58.09 249.027 58.7934 249.3 59.4C249.44 59.7134 249.4 60 249.18 60.26C247.567 62.1467 246.617 63.9334 246.33 65.62C245.87 68.3334 246.193 71.4734 247.3 75.04" stroke="#88C8CA" stroke-width="2"/>
<path d="M247.3 75.04L243.95 74.21" stroke="#948F89" stroke-width="2"/>
<path d="M243.95 74.21C226.043 68.8967 207.707 67.44 188.94 69.84" stroke="#B79686" stroke-width="2"/>
<path d="M188.94 69.84L186.8 69.9" stroke="#C0A584" stroke-width="2"/>
<path d="M186.8 69.8999C186.44 65.5999 185.03 61.6733 182.57 58.1199C182.363 57.8266 182.27 57.4999 182.29 57.1399C182.343 56.2333 182.71 55.4366 183.39 54.7499C183.663 54.4833 183.717 54.1766 183.55 53.8299L183.25 53.1899" stroke="#C1E2E2" stroke-width="2"/>
<path d="M207.11 51.36L183.25 53.19" stroke="#C0A584" stroke-width="2"/>
<path d="M183.25 53.1899C171.79 54.5233 160.7 57.4233 149.98 61.8899" stroke="#DBB191" stroke-width="2"/>
<path d="M149.98 61.89L134.62 69.2" stroke="#ECB999" stroke-width="2"/>
<path d="M134.62 69.2L126.5 50.67" stroke="#DD8E49" stroke-width="2"/>
<path d="M243.95 74.21C244.15 75.1966 244.413 76.16 244.74 77.1C245.12 78.2 245.38 79.1566 245.52 79.97C246.207 83.7566 247.037 87.18 248.01 90.24C248.35 91.3133 247.743 92.6433 246.19 94.23" stroke="#A5503A" stroke-width="2"/>
<path d="M189.21 89.18C189.01 88.9466 188.94 88.68 189 88.38C189.053 88.0533 189.217 87.7933 189.49 87.6C189.857 87.34 190.067 86.99 190.12 86.55C190.467 83.65 190.153 80.9066 189.18 78.32C188.14 75.57 188.73 72.74 188.94 69.84" stroke="#D16635" stroke-width="2"/>
<path d="M159.78 76.98C146.427 82.0266 134.157 89.01 122.97 97.93" stroke="#ECB999" stroke-width="2"/>
<path d="M122.97 97.9301C104.57 112.303 91.9833 130.323 85.21 151.99C81.7033 163.203 80.28 174.683 80.94 186.43" stroke="#EFD3AF" stroke-width="2"/>
<path d="M80.94 186.43C80.9933 188.843 81.1167 190.78 81.31 192.24C83.2167 206.34 88.4467 218.94 97 230.04C97.5267 230.727 98.13 231.25 98.81 231.61C99.3233 231.89 99.4833 231.757 99.29 231.21C94.4967 217.723 92.24 204.513 92.52 191.58" stroke="#F5E5CF" stroke-width="2"/>
<path d="M92.52 191.58C92.88 186.68 93.3767 182.403 94.01 178.75C98.57 152.31 114.23 129.27 135.19 112.91" stroke="#EFD3AF" stroke-width="2"/>
<path d="M135.19 112.91C151.357 100.45 169.363 92.5401 189.21 89.1801" stroke="#ECB999" stroke-width="2"/>
<path d="M189.21 89.18C208.89 86.6133 227.883 88.2967 246.19 94.23" stroke="#E3AB9B" stroke-width="2"/>
<path d="M246.19 94.23C262.483 99.7433 276.92 107.883 289.5 118.65" stroke="#C0A39D" stroke-width="2"/>
<path d="M43.43 151.74C44.63 151.94 45.81 152.047 46.97 152.06C51.02 152.12 55.04 153.53 59.27 154.86C60.6767 155.307 62.1133 155.367 63.58 155.04C64.0267 154.94 64.3233 154.673 64.47 154.24C68.4233 142.353 74.05 130.617 81.35 119.03C82.2767 117.557 83.0433 116.127 83.65 114.74" stroke="#FBF8F1" stroke-width="2"/>
<path d="M83.65 114.74C90.3167 105.733 97.65 97.53 105.65 90.13" stroke="#F5E5CF" stroke-width="2"/>
<path d="M360.87 270.05L345.21 258.24" stroke="#EDF6F6" stroke-width="2"/>
<path d="M186.8 69.9L159.78 76.98" stroke="#DBB191" stroke-width="2"/>
<path d="M159.78 76.98C159.873 75.5734 159.633 74.1933 159.06 72.84C158.937 72.5489 158.722 72.3093 158.45 72.16C156.66 71.19 154.98 70.87 153.61 69.13C151.943 67.0033 150.733 64.59 149.98 61.89" stroke="#EDF6F6" stroke-width="2"/>
<path d="M135.19 112.91C133.837 111.477 132.563 110.01 131.37 108.51C130.643 107.603 129.427 106.4 127.72 104.9C125.633 103.073 124.05 100.75 122.97 97.9301" stroke="#DD8E49" stroke-width="2"/>
<path d="M134.62 69.2C124.513 75.1666 114.857 82.1433 105.65 90.13" stroke="#EFD3AF" stroke-width="2"/>
<path d="M105.65 90.13C103.81 88.5767 101.737 86.56 99.43 84.08C97.6367 82.1534 96.1967 80.1667 95.11 78.12C94.7967 77.5334 94.5833 76.72 94.47 75.68C94.37 74.72 94.14 73.88 93.78 73.16" stroke="#E6B97F" stroke-width="2"/>
<path d="M83.65 114.74C80.07 113.2 77.12 111.037 74.8 108.25C73.99 107.27 72.97 106.64 71.91 105.97C71.2033 105.53 70.5633 104.9 69.99 104.08C69.2166 102.973 68.4233 101.86 67.61 100.74" stroke="#F2DFC2" stroke-width="2"/>
<path d="M92.52 191.58C88.32 192.6 84.46 190.883 80.94 186.43" stroke="#E6B97F" stroke-width="2"/>
<path d="M377.18 136.63C374.38 138.03 371.513 138.677 368.58 138.57C366.793 138.51 364.9 138.473 362.9 138.46C361.013 138.453 359.11 138.14 357.19 137.52" stroke="#4AAFB2" stroke-width="2"/>
<path d="M394.07 192.34C390.09 191.133 386.273 189.393 382.62 187.12C381.307 186.3 380.04 185.07 378.82 183.43C376.86 180.777 374.62 178.27 372.1 175.91" stroke="#88C8CA" stroke-width="2"/>
<path d="M388.31 273.69L373.57 260.1" stroke="#C1E2E2" stroke-width="2"/>
<path d="M371.01 309.96C368.443 309.46 366.92 308.567 366.44 307.28C365.16 303.84 363.44 300.497 361.28 297.25" stroke="#EDF6F6" stroke-width="2"/>
<path d="M242.31 31.1899C243.617 33.5299 244.8 35.9066 245.86 38.3199C246.92 40.7399 248.03 42.4499 249.19 43.4499C250.783 44.8233 252.637 45.8366 254.75 46.4899C258.397 47.6099 262.163 48.5899 266.05 49.4299L278.74 54.0599C278.913 56.9599 279.033 59.7333 279.1 62.3799C279.167 64.9799 277.967 66.7266 275.5 67.6199L250.66 57.7699C250.62 57.1699 250.72 56.5666 250.96 55.9599C251.093 55.6333 251.11 55.2999 251.01 54.9599C249.44 49.5199 246.77 44.5199 240.51 44.2299C235.423 43.9899 230.497 43.7233 225.73 43.4299C223.89 43.3166 222.157 42.8699 220.53 42.0899C219.177 41.4433 217.87 40.2933 216.61 38.6399C214.01 35.2533 211.313 32.0399 208.52 28.9999C219.673 28.6399 230.937 29.3699 242.31 31.1899Z" fill="#AF4936"/>
<path d="M208.52 29C211.313 32.04 214.01 35.2533 216.61 38.64C217.87 40.2933 219.177 41.4433 220.53 42.09C222.157 42.87 223.89 43.3167 225.73 43.43C230.497 43.7233 235.423 43.99 240.51 44.23C246.77 44.52 249.44 49.52 251.01 54.96C251.11 55.3 251.093 55.6333 250.96 55.96C250.72 56.5667 250.62 57.17 250.66 57.77L247.69 57.29C234.543 53.3633 221.017 51.3867 207.11 51.36C207.277 48.32 206.077 46.2433 203.51 45.13C201.95 44.45 200.127 44.2533 198.04 44.54C193.66 45.14 189.247 45.6233 184.8 45.99C179.53 46.43 173.54 46.29 172.2 40.01C171.573 37.0567 171.067 34.9333 170.68 33.64C182.913 30.7 195.527 29.1533 208.52 29Z" fill="#C85737"/>
<path d="M242.31 31.1899L261.26 35.5799C262.2 39.9599 262.82 42.7266 263.12 43.8799C263.553 45.5666 264.53 47.4166 266.05 49.4299C262.163 48.5899 258.397 47.6099 254.75 46.4899C252.637 45.8366 250.783 44.8233 249.19 43.4499C248.03 42.4499 246.92 40.7399 245.86 38.3199C244.8 35.9066 243.617 33.5299 242.31 31.1899Z" fill="#82483C"/>
<path d="M170.68 33.64C171.067 34.9333 171.573 37.0567 172.2 40.01C173.54 46.29 179.53 46.43 184.8 45.99C189.247 45.6234 193.66 45.14 198.04 44.54C200.127 44.2533 201.95 44.45 203.51 45.13C206.077 46.2433 207.277 48.32 207.11 51.36L183.25 53.19C171.79 54.5233 160.7 57.4233 149.98 61.89L134.62 69.2L126.5 50.67C140.42 42.8367 155.147 37.16 170.68 33.64Z" fill="#DA7433"/>
<path d="M261.26 35.58C274.013 38.4533 285.743 43.0333 296.45 49.32C298.637 50.6 299.487 52.65 299 55.47C298.58 57.89 298.38 60.4733 298.4 63.22C297.907 62.9666 297.337 62.7633 296.69 62.61C295.983 62.4366 295.413 62.2433 294.98 62.03C289.593 59.3766 284.18 56.72 278.74 54.06L266.05 49.43C264.53 47.4166 263.553 45.5666 263.12 43.88C262.82 42.7266 262.2 39.96 261.26 35.58Z" fill="#533A38"/>
<path d="M126.5 50.67L134.62 69.2C124.513 75.1667 114.857 82.1434 105.65 90.13C103.81 88.5767 101.737 86.56 99.43 84.08C97.6367 82.1534 96.1967 80.1667 95.11 78.12C94.7967 77.5334 94.5833 76.72 94.47 75.68C94.37 74.72 94.14 73.88 93.78 73.16C103.773 64.4134 114.68 56.9167 126.5 50.67Z" fill="#E0A75F"/>
<path d="M207.11 51.36C221.017 51.3867 234.543 53.3633 247.69 57.29C248.49 58.09 249.027 58.7933 249.3 59.4C249.44 59.7133 249.4 60 249.18 60.26C247.567 62.1466 246.617 63.9333 246.33 65.62C245.87 68.3333 246.193 71.4733 247.3 75.04L243.95 74.21C226.043 68.8967 207.707 67.44 188.94 69.84L186.8 69.9C186.44 65.6 185.03 61.6733 182.57 58.12C182.363 57.8267 182.27 57.5 182.29 57.14C182.343 56.2333 182.71 55.4367 183.39 54.75C183.663 54.4833 183.717 54.1767 183.55 53.83L183.25 53.19L207.11 51.36Z" fill="#A5D5D5"/>
<path d="M183.25 53.1899L183.55 53.8299C183.717 54.1766 183.663 54.4833 183.39 54.7499C182.71 55.4366 182.343 56.2333 182.29 57.1399C182.27 57.4999 182.363 57.8266 182.57 58.1199C185.03 61.6733 186.44 65.5999 186.8 69.8999L159.78 76.9799C159.873 75.5733 159.633 74.1933 159.06 72.8399C158.937 72.5489 158.722 72.3093 158.45 72.1599C156.66 71.1899 154.98 70.8699 153.61 69.1299C151.943 67.0033 150.733 64.5899 149.98 61.8899C160.7 57.4233 171.79 54.5233 183.25 53.1899Z" fill="#DCEEEE"/>
<path d="M278.74 54.0601C284.18 56.7201 289.593 59.3767 294.98 62.0301C295.413 62.2434 295.983 62.4367 296.69 62.6101C297.337 62.7634 297.907 62.9667 298.4 63.2201L313.48 73.6301C314.094 74.0524 314.527 74.6901 314.693 75.4176C314.86 76.145 314.748 76.9094 314.38 77.5601L308.21 88.3901L275.5 67.6201C277.967 66.7267 279.167 64.9801 279.1 62.3801C279.033 59.7334 278.913 56.9601 278.74 54.0601Z" fill="#82483C"/>
<path d="M247.69 57.29L250.66 57.77L275.5 67.62L308.21 88.39C315.457 94.7834 321.683 101.023 326.89 107.11C339.75 122.11 349.633 139.25 356.54 158.53L349.57 158.72C349.23 158.733 348.917 158.647 348.63 158.46C347.13 157.5 346.17 156.03 344.56 155.14C342.44 153.96 339.66 153.02 338.46 150.75C336.587 147.177 333.953 144.573 330.56 142.94C322.333 128.453 311.787 115.647 298.92 104.52C283.867 91.36 266.66 81.5334 247.3 75.04C246.193 71.4734 245.87 68.3334 246.33 65.62C246.617 63.9334 247.567 62.1467 249.18 60.26C249.4 60 249.44 59.7134 249.3 59.4C249.027 58.7934 248.49 58.09 247.69 57.29Z" fill="#6ABBBE"/>
<path d="M149.98 61.89C150.733 64.59 151.943 67.0033 153.61 69.13C154.98 70.87 156.66 71.19 158.45 72.16C158.722 72.3093 158.937 72.5489 159.06 72.84C159.633 74.1933 159.873 75.5734 159.78 76.98C146.427 82.0267 134.157 89.01 122.97 97.93C104.57 112.303 91.9833 130.323 85.21 151.99C81.7033 163.203 80.28 174.683 80.94 186.43C80.9933 188.843 81.1167 190.78 81.31 192.24C83.2167 206.34 88.4467 218.94 97 230.04C97.5267 230.727 98.13 231.25 98.81 231.61C99.3233 231.89 99.4833 231.757 99.29 231.21C94.4967 217.723 92.24 204.513 92.52 191.58C92.88 186.68 93.3767 182.403 94.01 178.75C98.57 152.31 114.23 129.27 135.19 112.91C151.357 100.45 169.363 92.54 189.21 89.18C208.89 86.6133 227.883 88.2967 246.19 94.23C262.483 99.7434 276.92 107.883 289.5 118.65C290.107 119.123 290.193 119.657 289.76 120.25C278.78 135.297 265.58 147.75 250.16 157.61C238.9 164.803 228 172.28 217.46 180.04C173.57 212.34 141.54 260.55 150.03 317.09C151.83 329.05 155.197 340.783 160.13 352.29C160.637 353.47 161.573 354.083 162.94 354.13C166.313 354.25 169.54 354.297 172.62 354.27C172.744 354.27 172.867 354.24 172.977 354.182C173.087 354.124 173.181 354.04 173.252 353.938C173.323 353.836 173.368 353.718 173.383 353.595C173.398 353.472 173.384 353.346 173.34 353.23C158.64 313.757 161.777 276.147 182.75 240.4C187.563 232.193 194.32 223.593 203.02 214.6C220.69 196.33 243.29 181.53 265.26 166.93C272.36 162.217 277.753 158.3 281.44 155.18C289.147 148.66 296.227 141.117 302.68 132.55C302.75 132.457 302.84 132.381 302.945 132.329C303.049 132.277 303.164 132.25 303.28 132.25C303.396 132.25 303.511 132.277 303.615 132.329C303.72 132.381 303.81 132.457 303.88 132.55L311.05 142.12C311.216 142.341 311.308 142.609 311.313 142.885C311.318 143.161 311.237 143.432 311.08 143.66C301.227 158.08 288.793 170.07 273.78 179.63C261.1 187.71 249.32 195.68 238.44 203.54C206.79 226.42 183.13 260.6 179.84 299.59C178.367 317.01 180.917 334.517 187.49 352.11C188.07 353.66 189.73 354.3 191.28 354.29C193.593 354.277 195.917 354.233 198.25 354.16C198.505 354.153 198.755 354.085 198.979 353.963C199.203 353.84 199.395 353.667 199.539 353.456C199.684 353.246 199.776 353.004 199.809 352.751C199.842 352.498 199.815 352.241 199.73 352C189.45 322.967 190.467 294.803 202.78 267.51C207.927 256.097 214.583 245.757 222.75 236.49C238.13 219.02 259.31 204.44 279.78 192.13C286.027 188.377 291.887 184.453 297.36 180.36C305.22 174.48 312.58 167.06 319.51 159.27C319.612 159.155 319.74 159.065 319.883 159.01C320.026 158.954 320.181 158.934 320.334 158.951C320.487 158.967 320.634 159.02 320.762 159.106C320.89 159.191 320.996 159.305 321.07 159.44C341.34 196.42 339.2 241.58 322.88 279.48C306.707 317.053 280.167 344.977 243.26 363.25C210.96 379.25 172.32 374.81 139.44 359.2C90.86 336.14 54.37 290.7 41.41 238.25C34.37 209.777 35.0433 180.94 43.43 151.74C44.63 151.94 45.81 152.047 46.97 152.06C51.02 152.12 55.04 153.53 59.27 154.86C60.6767 155.307 62.1133 155.367 63.58 155.04C64.0267 154.94 64.3233 154.673 64.47 154.24C68.4233 142.353 74.05 130.617 81.35 119.03C82.2767 117.557 83.0433 116.127 83.65 114.74C90.3167 105.733 97.65 97.53 105.65 90.13C114.857 82.1433 124.513 75.1667 134.62 69.2L149.98 61.89Z" fill="#3B3B3B"/>
<path d="M243.95 74.21C244.15 75.1967 244.413 76.16 244.74 77.1C245.12 78.2 245.38 79.1567 245.52 79.97C246.207 83.7567 247.037 87.18 248.01 90.24C248.35 91.3133 247.743 92.6433 246.19 94.23C227.883 88.2967 208.89 86.6133 189.21 89.18C189.01 88.9467 188.94 88.68 189 88.38C189.053 88.0533 189.217 87.7933 189.49 87.6C189.857 87.34 190.067 86.99 190.12 86.55C190.467 83.65 190.153 80.9067 189.18 78.32C188.14 75.57 188.73 72.74 188.94 69.84C207.707 67.44 226.043 68.8967 243.95 74.21Z" fill="#C85737"/>
<path d="M188.94 69.84C188.73 72.74 188.14 75.57 189.18 78.32C190.153 80.9066 190.467 83.65 190.12 86.55C190.067 86.99 189.857 87.34 189.49 87.6C189.217 87.7933 189.053 88.0533 189 88.38C188.94 88.68 189.01 88.9466 189.21 89.18C169.363 92.54 151.357 100.45 135.19 112.91C133.837 111.477 132.563 110.01 131.37 108.51C130.643 107.603 129.427 106.4 127.72 104.9C125.633 103.073 124.05 100.75 122.97 97.93C134.157 89.01 146.427 82.0266 159.78 76.98L186.8 69.9L188.94 69.84Z" fill="#DA7433"/>
<path d="M93.78 73.16C94.14 73.88 94.37 74.72 94.47 75.68C94.5833 76.72 94.7967 77.5334 95.11 78.12C96.1967 80.1667 97.6367 82.1534 99.43 84.08C101.737 86.56 103.81 88.5767 105.65 90.13C97.65 97.53 90.3167 105.733 83.65 114.74C80.07 113.2 77.12 111.037 74.8 108.25C73.99 107.27 72.97 106.64 71.91 105.97C71.2033 105.53 70.5633 104.9 69.99 104.08C69.2167 102.973 68.4233 101.86 67.61 100.74C75.05 90.6534 83.7733 81.46 93.78 73.16Z" fill="#ECCB9F"/>
<path d="M243.95 74.21L247.3 75.04C266.66 81.5333 283.867 91.36 298.92 104.52C296.84 108.12 294.92 111.66 293.16 115.14C292.647 116.153 291.427 117.323 289.5 118.65C276.92 107.883 262.483 99.7433 246.19 94.23C247.743 92.6433 248.35 91.3133 248.01 90.24C247.037 87.18 246.207 83.7566 245.52 79.97C245.38 79.1566 245.12 78.2 244.74 77.1C244.413 76.16 244.15 75.1966 243.95 74.21Z" fill="#82483C"/>
<path d="M377.18 136.63C374.38 138.03 371.513 138.677 368.58 138.57C366.793 138.51 364.9 138.473 362.9 138.46C361.013 138.453 359.11 138.14 357.19 137.52C349.643 122.233 340.463 108.03 329.65 94.91C329.489 94.7171 329.388 94.4809 329.36 94.2305C329.331 93.98 329.377 93.7261 329.49 93.5L336.64 79.2C336.658 79.1633 336.684 79.1315 336.716 79.1072C336.749 79.0828 336.788 79.0666 336.828 79.0598C336.869 79.053 336.911 79.0558 336.952 79.068C336.992 79.0802 337.029 79.1014 337.06 79.13C353.673 96.13 367.047 115.297 377.18 136.63Z" fill="#29A3A6"/>
<path d="M122.97 97.9301C124.05 100.75 125.633 103.073 127.72 104.9C129.427 106.4 130.643 107.603 131.37 108.51C132.563 110.01 133.837 111.477 135.19 112.91C114.23 129.27 98.57 152.31 94.01 178.75C93.3767 182.403 92.88 186.68 92.52 191.58C88.32 192.6 84.46 190.883 80.94 186.43C80.28 174.683 81.7033 163.203 85.21 151.99C91.9833 130.323 104.57 112.303 122.97 97.9301Z" fill="#E0A75F"/>
<path d="M67.61 100.74C68.4233 101.86 69.2167 102.973 69.99 104.08C70.5633 104.9 71.2033 105.53 71.91 105.97C72.97 106.64 73.99 107.27 74.8 108.25C77.12 111.037 80.07 113.2 83.65 114.74C83.0433 116.127 82.2767 117.557 81.35 119.03C74.05 130.617 68.4233 142.353 64.47 154.24C64.3233 154.673 64.0267 154.94 63.58 155.04C62.1133 155.367 60.6767 155.307 59.27 154.86C55.04 153.53 51.02 152.12 46.97 152.06C45.81 152.047 44.63 151.94 43.43 151.74C48.4367 133.507 56.4967 116.507 67.61 100.74Z" fill="#F8F2E4"/>
<path d="M377.18 136.63C385.44 154.197 391.07 172.767 394.07 192.34C390.09 191.133 386.273 189.393 382.62 187.12C381.307 186.3 380.04 185.07 378.82 183.43C376.86 180.777 374.62 178.27 372.1 175.91C368.273 162.983 363.303 150.187 357.19 137.52C359.11 138.14 361.013 138.453 362.9 138.46C364.9 138.473 366.793 138.51 368.58 138.57C371.513 138.677 374.38 138.03 377.18 136.63Z" fill="#6ABBBE"/>
<path d="M330.56 142.94C333.953 144.573 336.587 147.177 338.46 150.75C339.66 153.02 342.44 153.96 344.56 155.14C346.17 156.03 347.13 157.5 348.63 158.46C348.917 158.647 349.23 158.733 349.57 158.72L356.54 158.53C365.44 182.123 369.19 206.613 367.79 232C367.797 231.267 367.54 230.68 367.02 230.24C366.133 229.48 365.687 229.097 365.68 229.09C365.053 228.37 364.557 227.863 364.19 227.57C360.75 224.777 357.507 221.77 354.46 218.55C353.58 217.623 352.187 217.023 350.28 216.75C349.447 190.69 342.873 166.087 330.56 142.94Z" fill="#A5D5D5"/>
<path d="M372.1 175.91C374.62 178.27 376.86 180.777 378.82 183.43C380.04 185.07 381.307 186.3 382.62 187.12C386.273 189.393 390.09 191.133 394.07 192.34C399.05 219.6 397.13 246.717 388.31 273.69L373.57 260.1C379.17 235.673 379.38 210.897 374.2 185.77C373.58 182.743 372.88 179.457 372.1 175.91Z" fill="#A5D5D5"/>
<path d="M80.94 186.43C84.46 190.883 88.32 192.6 92.52 191.58C92.24 204.513 94.4967 217.723 99.29 231.21C99.4833 231.757 99.3233 231.89 98.81 231.61C98.13 231.25 97.5267 230.727 97 230.04C88.4467 218.94 83.2167 206.34 81.31 192.24C81.1167 190.78 80.9933 188.843 80.94 186.43Z" fill="#ECCB9F"/>
<path d="M350.28 216.75C352.187 217.023 353.58 217.623 354.46 218.55C357.507 221.77 360.75 224.777 364.19 227.57C364.557 227.863 365.053 228.37 365.68 229.09C365.687 229.097 366.133 229.48 367.02 230.24C367.54 230.68 367.797 231.267 367.79 232C367.037 244.907 364.73 257.59 360.87 270.05L345.21 258.24C348.717 244.713 350.407 230.883 350.28 216.75Z" fill="#DCEEEE"/>
<path d="M345.21 258.24L360.87 270.05C352.797 295.177 340.317 316.967 323.43 335.42C310.31 349.753 294.067 361.903 274.7 371.87C248.353 385.43 219.65 390.353 188.59 386.64C188.52 386.632 188.453 386.609 188.394 386.571C188.335 386.534 188.285 386.483 188.248 386.423C188.211 386.363 188.189 386.296 188.182 386.226C188.176 386.156 188.185 386.086 188.21 386.02L188.31 385.74C188.497 385.24 188.86 384.98 189.4 384.96C230.13 383.53 267.38 366.86 297.11 339.09C320.897 316.877 336.93 289.927 345.21 258.24Z" fill="#3B3B3B"/>
<path d="M373.57 260.1L388.31 273.69C384.017 286.39 378.25 298.48 371.01 309.96C368.443 309.46 366.92 308.567 366.44 307.28C365.16 303.84 363.44 300.497 361.28 297.25C366.373 285.657 370.47 273.273 373.57 260.1Z" fill="#DCEEEE"/>
<path d="M361.28 297.25C363.44 300.497 365.16 303.84 366.44 307.28C366.92 308.567 368.443 309.46 371.01 309.96C359.563 328.287 345.377 344.447 328.45 358.44C316.097 368.647 302.613 376.513 288 382.04C287.66 382.173 287.477 382.057 287.45 381.69C287.417 381.243 287.59 380.9 287.97 380.66C320.06 359.95 344.6 331.64 361.28 297.25Z" fill="#3B3B3B"/>
<path d="M34.83 526.3C45.56 524.05 46.99 510.25 36.1 506.99C33.6933 506.263 31.2367 505.807 28.73 505.62C19.65 504.92 12.26 499.94 12.12 490.27C12.02 483.91 14.87 478.26 20.82 475.65C28.64 472.22 38.81 473.97 46.23 477.6C47.57 478.253 48.1033 479.313 47.83 480.78C47.75 481.2 47.5867 481.573 47.34 481.9C46.0867 483.593 44.5167 483.98 42.63 483.06C35.73 479.7 19.67 476.48 18.51 488.64C17.6 498.06 26.32 499.79 33.56 500.37C42.86 501.1 50.54 507.31 49.73 517.28C49.1167 524.8 45.0933 529.677 37.66 531.91C30.2933 534.123 22.7 533.527 14.88 530.12C13.2067 529.387 12.3333 528.06 12.26 526.14C12.2267 525.267 13.0433 524.63 14.71 524.23C15.2104 524.106 15.7389 524.145 16.22 524.34C22.6533 526.893 28.8567 527.547 34.83 526.3Z" fill="#3B3B3B"/>
<path d="M187.24 505.97L187.22 525.24C187.219 525.325 187.235 525.409 187.267 525.488C187.299 525.567 187.346 525.638 187.407 525.699C187.467 525.759 187.539 525.807 187.619 525.84C187.698 525.873 187.784 525.89 187.87 525.89C196.303 525.897 204.293 525.843 211.84 525.73C213.52 525.703 214.737 526.487 215.49 528.08C215.637 528.393 215.647 528.707 215.52 529.02C214.747 530.96 213.343 531.927 211.31 531.92C202.483 531.913 193.443 531.867 184.19 531.78C183.273 531.772 182.397 531.402 181.752 530.75C181.108 530.097 180.747 529.217 180.75 528.3L180.8 477.96C180.802 477.049 181.161 476.175 181.798 475.527C182.436 474.878 183.302 474.506 184.21 474.49C193.45 474.323 202.65 474.207 211.81 474.14C213.923 474.12 215.6 475.02 216.84 476.84C217.047 477.147 217.067 477.467 216.9 477.8C216.007 479.547 214.577 480.41 212.61 480.39C205.03 480.303 196.787 480.277 187.88 480.31C187.761 480.31 187.643 480.334 187.533 480.38C187.423 480.426 187.324 480.494 187.24 480.58C187.156 480.666 187.09 480.767 187.046 480.879C187.001 480.99 186.979 481.11 186.98 481.23L187.27 498.72C187.273 498.838 187.321 498.949 187.405 499.032C187.489 499.114 187.602 499.16 187.72 499.16L209.52 499.15C211.6 499.15 212.67 500.19 212.73 502.27L212.75 502.86C212.797 504.487 212.01 505.297 210.39 505.29L188.03 505.18C187.503 505.18 187.24 505.443 187.24 505.97Z" fill="#3B3B3B"/>
<path d="M82.3 480.94C82.2068 480.807 82.083 480.697 81.9388 480.621C81.7945 480.545 81.6339 480.503 81.47 480.5C76.5767 480.34 71.9067 480.29 67.46 480.35C65.7667 480.37 64.6133 479.547 64 477.88C63.8867 477.58 63.9067 477.293 64.06 477.02C65.06 475.173 66.5833 474.257 68.63 474.27C79.1233 474.31 89.8933 474.303 100.94 474.25C103.087 474.243 104.29 475.3 104.55 477.42C104.57 477.58 104.57 477.733 104.55 477.88C104.263 479.767 103.163 480.7 101.25 480.68L90.08 480.59C89.9032 480.589 89.7279 480.622 89.5641 480.689C89.4004 480.756 89.2515 480.854 89.126 480.979C89.0005 481.104 88.9009 481.252 88.8329 481.415C88.765 481.578 88.73 481.753 88.73 481.93C88.7233 495.67 88.72 510.343 88.72 525.95C88.72 527.81 88.1533 529.497 87.02 531.01C86.75 531.372 86.3576 531.623 85.916 531.717C85.4744 531.811 85.0138 531.741 84.62 531.52C83.55 530.91 82.72 529.72 82.72 528.45C82.74 513.717 82.6867 498.147 82.56 481.74C82.56 481.453 82.4733 481.187 82.3 480.94Z" fill="#3B3B3B"/>
<path d="M246.7 507.55C246.405 507.553 246.122 507.673 245.914 507.884C245.707 508.096 245.59 508.382 245.59 508.68L245.57 516.8C245.563 518.74 245.467 520.677 245.28 522.61C244.593 529.89 243.24 532.913 241.22 531.68C239.887 530.853 239.22 529.657 239.22 528.09L239.21 477.77C239.21 476.961 239.517 476.183 240.068 475.591C240.619 474.999 241.374 474.638 242.18 474.58C247.613 474.2 252.95 474.1 258.19 474.28C265.59 474.53 272.67 477.81 274.14 485.84C276.027 496.14 272.217 502.997 262.71 506.41C262.588 506.454 262.478 506.525 262.387 506.618C262.296 506.71 262.226 506.822 262.184 506.945C262.142 507.068 262.128 507.198 262.143 507.327C262.158 507.456 262.201 507.58 262.27 507.69L275.05 527.82C275.977 529.287 275.687 530.447 274.18 531.3L273.33 531.78C271.703 532.7 270.373 532.38 269.34 530.82C264.733 523.88 259.91 516.597 254.87 508.97C254.23 507.997 253.323 507.51 252.15 507.51C250.21 507.51 248.393 507.523 246.7 507.55ZM245.14 481.44L245.47 500.44C245.475 500.701 245.583 500.949 245.771 501.131C245.958 501.312 246.209 501.413 246.47 501.41L258.39 501.21C259.734 501.187 261.06 500.908 262.293 500.388C263.526 499.869 264.642 499.119 265.576 498.182C266.51 497.245 267.245 496.139 267.738 494.927C268.231 493.715 268.473 492.422 268.45 491.12L268.43 489.96C268.384 487.332 267.263 484.831 265.312 483.006C263.362 481.182 260.743 480.183 258.03 480.23L246.11 480.44C245.849 480.445 245.601 480.553 245.419 480.74C245.238 480.928 245.137 481.179 245.14 481.44Z" fill="#3B3B3B"/>
<path d="M397.59 525.92C405.77 525.9 413.81 525.847 421.71 525.76C423.723 525.733 424.723 526.66 424.71 528.54C424.71 528.647 424.72 528.75 424.74 528.85C425.013 530.777 424.18 531.74 422.24 531.74L394.28 531.79C393.755 531.791 393.234 531.689 392.749 531.489C392.263 531.289 391.821 530.996 391.449 530.625C391.076 530.255 390.781 529.815 390.578 529.33C390.376 528.845 390.271 528.325 390.27 527.8C390.257 511.693 390.267 495.42 390.3 478.98C390.307 475.94 391.847 474.407 394.92 474.38C403.767 474.313 413.06 474.243 422.8 474.17C423.463 474.17 424.113 474.335 424.69 474.65C426.643 475.71 427.377 476.667 426.89 477.52C425.817 479.407 424.21 480.347 422.07 480.34C414.343 480.307 406.04 480.297 397.16 480.31C397.03 480.31 396.905 480.362 396.814 480.453C396.722 480.545 396.67 480.67 396.67 480.8L396.69 498.5C396.69 498.651 396.75 498.796 396.857 498.903C396.964 499.01 397.109 499.07 397.26 499.07L419.71 499.18C421.55 499.187 422.46 500.113 422.44 501.96L422.43 502.64C422.41 504.34 421.55 505.19 419.85 505.19L397.28 505.14C396.887 505.14 396.69 505.333 396.69 505.72L396.71 525.04C396.71 525.627 397.003 525.92 397.59 525.92Z" fill="#3B3B3B"/>
<path d="M141.42 520.06C141.78 519.953 142.06 519.61 142.26 519.03C146.847 505.923 151.777 492.007 157.05 477.28C157.697 475.48 158.97 474.69 160.87 474.91C161.23 474.957 161.523 475.13 161.75 475.43C162.903 476.93 163.193 478.457 162.62 480.01C156.833 495.79 150.927 512.043 144.9 528.77C143.99 531.28 139.85 533.66 138.57 530.23C132.177 513.123 125.987 496.43 120 480.15C119.353 478.37 119.707 476.67 121.06 475.05C121.14 474.95 121.24 474.88 121.36 474.84C123.167 474.227 124.35 474.683 124.91 476.21C129.903 489.81 135.173 504.307 140.72 519.7C140.84 520.04 141.073 520.16 141.42 520.06Z" fill="#3B3B3B"/>
<path d="M349.29 519.4C349.697 518.593 350.053 517.753 350.36 516.88C355.04 503.387 359.687 490.073 364.3 476.94C364.488 476.401 364.838 475.939 365.3 475.62C367.013 474.433 368.17 474.193 368.77 474.9C370.25 476.647 370.597 478.587 369.81 480.72C364.137 496.1 358.183 512.263 351.95 529.21C351.07 531.61 346.95 533.4 345.77 530.35C340.597 516.863 334.34 500.003 327 479.77C326.293 477.837 326.773 476.263 328.44 475.05C328.973 474.663 329.66 474.543 330.5 474.69C330.85 474.751 331.177 474.904 331.449 475.132C331.722 475.36 331.929 475.656 332.05 475.99L347.91 519.32C347.959 519.457 348.048 519.577 348.165 519.664C348.281 519.751 348.422 519.802 348.568 519.81C348.714 519.819 348.86 519.784 348.989 519.712C349.117 519.639 349.222 519.53 349.29 519.4Z" fill="#3B3B3B"/>
<path d="M301.41 474.68H301.31C299.609 474.68 298.23 476.059 298.23 477.76V528.54C298.23 530.241 299.609 531.62 301.31 531.62H301.41C303.111 531.62 304.49 530.241 304.49 528.54V477.76C304.49 476.059 303.111 474.68 301.41 474.68Z" fill="#3B3B3B"/>
<path d="M89.93 565H84.63C81.71 563.58 82.02 557.71 83.14 555.13C83.3 554.75 83.5867 554.54 84 554.5L90.17 553.9C90.3026 553.888 90.4356 553.907 90.5574 553.956C90.6793 554.004 90.7865 554.081 90.87 554.18C91.3633 554.747 91.2333 555.32 90.48 555.9C90.2592 556.069 89.9931 556.164 89.72 556.17L85.96 556.25C85.1133 556.27 84.6567 556.7 84.59 557.54L84.28 561.47C84.2133 562.33 84.6133 562.76 85.48 562.76C86.6467 562.753 87.9567 562.723 89.41 562.67C89.5897 562.663 89.7689 562.69 89.9373 562.748C90.1057 562.807 90.2599 562.897 90.3911 563.012C90.5222 563.127 90.6276 563.266 90.7013 563.42C90.7749 563.574 90.8152 563.741 90.82 563.91C90.8267 564.197 90.53 564.56 89.93 565Z" fill="#6ABBBE"/>
<path d="M134.88 565H130.18C128.807 564.573 128.047 563.487 127.9 561.74C127.76 560.04 127.793 558.267 128 556.42C128.047 555.982 128.229 555.569 128.521 555.24C128.813 554.91 129.201 554.679 129.63 554.58C134.35 553.49 141.26 555.27 139.19 561.73C138.637 563.45 137.2 564.54 134.88 565ZM129.65 557.4L129.46 561.31C129.448 561.541 129.482 561.772 129.559 561.989C129.637 562.207 129.756 562.407 129.912 562.578C130.067 562.749 130.255 562.888 130.464 562.986C130.673 563.084 130.899 563.14 131.13 563.15L132.83 563.23C133.453 563.259 134.074 563.198 134.658 563.05C135.242 562.903 135.776 562.672 136.231 562.371C136.686 562.07 137.053 561.705 137.31 561.297C137.567 560.888 137.71 560.444 137.73 559.99L137.76 559.49C137.803 558.574 137.345 557.671 136.486 556.981C135.627 556.291 134.438 555.87 133.18 555.81L131.48 555.73C131.25 555.719 131.02 555.754 130.804 555.832C130.588 555.91 130.389 556.03 130.219 556.185C130.049 556.341 129.911 556.528 129.813 556.736C129.716 556.945 129.66 557.17 129.65 557.4Z" fill="#6ABBBE"/>
<path d="M198.14 565H192.44C190.807 564.433 189.92 563.267 189.78 561.5C189.6 559.247 189.903 557.173 190.69 555.28C190.89 554.807 191.247 554.567 191.76 554.56L199.29 554.5C199.69 554.493 199.897 554.693 199.91 555.1V555.38C199.923 555.933 199.657 556.207 199.11 556.2H192.75C192.05 556.2 191.66 556.55 191.58 557.25L191.17 560.74C191.017 562.1 191.623 562.833 192.99 562.94C194.803 563.073 196.543 563.13 198.21 563.11C198.637 563.11 198.923 563.3 199.07 563.68C199.197 564.007 199.117 564.277 198.83 564.49L198.14 565Z" fill="#6ABBBE"/>
<path d="M274 554.841L272.774 554.549C272.629 554.514 272.484 554.604 272.449 554.749L270.28 563.854C270.245 563.999 270.335 564.145 270.48 564.179L271.706 564.471C271.851 564.506 271.996 564.416 272.031 564.271L274.2 555.166C274.235 555.021 274.145 554.875 274 554.841Z" fill="#6ABBBE"/>
<path d="M252.851 560.244C253.612 563.047 254.731 565.184 255.349 565.016C255.967 564.848 255.851 562.439 255.089 559.636C254.328 556.832 253.209 554.696 252.591 554.864C251.973 555.032 252.089 557.441 252.851 560.244Z" fill="#6ABBBE"/>
<path d="M262.26 562.6C262 563.62 261.357 564.253 260.33 564.5C260.241 564.521 260.147 564.517 260.06 564.488C259.973 564.459 259.896 564.406 259.837 564.335C259.779 564.264 259.742 564.178 259.73 564.087C259.718 563.996 259.732 563.904 259.77 563.82C261.037 561.027 261.9 558.2 262.36 555.34C262.433 554.907 262.687 554.72 263.12 554.78C263.293 554.807 263.457 554.867 263.61 554.96C264.123 555.267 264.38 555.723 264.38 556.33C264.387 559.03 264.917 561.493 265.97 563.72C266.19 564.173 266.047 564.387 265.54 564.36L264.89 564.34C264.41 564.313 264.023 564.107 263.73 563.72L262.79 562.49C262.537 562.157 262.36 562.193 262.26 562.6Z" fill="#6ABBBE"/>
<path d="M324.191 560.197C324.077 562.818 324.427 564.962 324.973 564.985C325.519 565.009 326.055 562.904 326.169 560.283C326.283 557.662 325.933 555.518 325.387 555.494C324.841 555.471 324.305 557.576 324.191 560.197Z" fill="#6ABBBE"/>
</g>
<defs>
<clipPath id="clip0_1077_8727">
<rect width="441" height="565" fill="white"/>
</clipPath>
</defs>
</svg>
