<svg width="433" height="501" viewBox="0 0 433 501" fill="none" xmlns="http://www.w3.org/2000/svg">
<path d="M300.939 17.8092C300.104 23.263 303.234 28.2666 307.929 28.9851C312.624 29.7035 317.106 25.8647 317.941 20.4109C318.776 14.957 315.646 9.95339 310.951 9.23495C306.256 8.51652 301.774 12.3553 300.939 17.8092Z" fill="#3B3B3B"/>
<path d="M303.25 71.04L314.52 54.48C314.711 54.1937 314.97 53.959 315.273 53.7968C315.577 53.6345 315.916 53.5498 316.26 53.55L346.89 53.39C348.25 53.3833 348.417 53.8233 347.39 54.71C345.81 56.06 344.38 57.33 343.14 59.03C331.58 74.8633 320.75 91.2967 310.65 108.33C310.603 108.41 310.538 108.478 310.461 108.53C310.384 108.582 310.297 108.617 310.205 108.631C310.114 108.645 310.02 108.639 309.931 108.613C309.842 108.587 309.759 108.542 309.69 108.48C279.91 82.09 240.63 69.5 201.48 72.78C184.107 74.2333 167.06 77.9933 150.34 84.06C135.46 89.46 121.56 97.7 108.86 107.67C105.947 109.963 105.51 109.56 107.55 106.46C113.303 97.74 120.37 89.49 128.75 81.71C153.2 58.99 183.93 48.31 217.12 47.36C247.627 46.4733 275.733 54.4867 301.44 71.4C301.73 71.5893 302.083 71.6576 302.422 71.5902C302.76 71.5229 303.058 71.3252 303.25 71.04Z" fill="#3B3B3B"/>
<path d="M62.3364 80.6745C60.9752 87.5495 64.6324 94.0655 70.5052 95.2283C76.3779 96.3912 82.2423 91.7605 83.6036 84.8855C84.9648 78.0105 81.3076 71.4945 75.4348 70.3317C69.5621 69.1688 63.6977 73.7995 62.3364 80.6745Z" fill="#3B3B3B"/>
<path d="M198.39 240.16C198.17 240.247 198.01 240.403 197.91 240.63C187.823 263.123 177.873 282.763 168.06 299.55C167.932 299.769 167.887 300.027 167.933 300.276C167.979 300.526 168.112 300.751 168.31 300.91C185.68 315.01 205.87 322.77 228.25 322.39C248.33 322.05 268.303 322.25 288.17 322.99C288.907 323.016 289.634 322.787 290.23 322.34C301.03 314.113 310.14 304.337 317.56 293.01C317.736 292.742 317.974 292.521 318.255 292.366C318.535 292.21 318.849 292.126 319.17 292.12C332.557 291.913 345.917 291.697 359.25 291.47C359.537 291.463 359.807 291.523 360.06 291.65C360.126 291.683 360.185 291.73 360.232 291.787C360.28 291.844 360.315 291.911 360.336 291.982C360.356 292.053 360.362 292.128 360.352 292.202C360.343 292.275 360.318 292.346 360.28 292.41C351.047 308.003 339.583 320.543 325.89 330.03C316.57 336.49 306.52 342.66 296.4 348.1C294.173 349.307 291.507 350 288.4 350.18C270.253 351.253 252.913 351.507 236.38 350.94C205.9 349.9 178.14 341.65 153.41 323.84C153.273 323.741 153.118 323.671 152.954 323.633C152.79 323.595 152.62 323.589 152.454 323.617C152.288 323.645 152.13 323.706 151.989 323.795C151.847 323.885 151.725 324.002 151.63 324.14L139.12 342.17C138.939 342.431 138.696 342.641 138.413 342.783C138.129 342.924 137.816 342.992 137.5 342.98C126.76 342.56 115.45 342.807 103.57 343.72C103.46 343.728 103.35 343.706 103.253 343.655C103.155 343.605 103.073 343.528 103.017 343.433C102.961 343.338 102.932 343.23 102.935 343.12C102.937 343.01 102.97 342.902 103.03 342.81C112.143 328.843 121.3 314.77 130.5 300.59C131.44 299.143 131.27 297.777 129.99 296.49C109.9 276.23 94.77 252.09 87.51 224.23C77.7167 186.65 82.9733 151.983 103.28 120.23C104.133 118.897 105.377 118.19 107.01 118.11C125.79 117.137 143.903 116.88 161.35 117.34C161.497 117.344 161.64 117.386 161.765 117.462C161.89 117.538 161.993 117.646 162.064 117.774C162.135 117.903 162.171 118.047 162.168 118.194C162.166 118.341 162.125 118.484 162.05 118.61C156.603 127.63 151.947 136.817 148.08 146.17C147.47 147.65 145.91 148.07 144.46 148.03C135.687 147.79 127.193 147.653 118.98 147.62C118.686 147.617 118.398 147.706 118.156 147.877C117.914 148.047 117.73 148.289 117.63 148.57C101.14 195.17 114.55 244.4 148.75 279.79C148.851 279.894 148.977 279.969 149.116 280.009C149.255 280.049 149.402 280.052 149.542 280.018C149.683 279.983 149.812 279.913 149.917 279.813C150.021 279.714 150.098 279.588 150.14 279.45C150.693 277.597 151.39 275.917 152.23 274.41C163.31 254.617 176.093 229.173 190.58 198.08C192.52 193.913 195.23 189.057 198.71 183.51C199.63 182.03 200.083 180.28 200.07 178.26C199.903 157.8 199.92 137.507 200.12 117.38C200.122 117.108 200.23 116.848 200.42 116.654C200.611 116.46 200.868 116.348 201.14 116.34C233.827 115.487 266.247 115.48 298.4 116.32C298.573 116.323 298.742 116.371 298.89 116.459C299.039 116.548 299.162 116.674 299.248 116.825C299.333 116.976 299.378 117.147 299.379 117.321C299.379 117.496 299.335 117.668 299.25 117.82C294.25 126.72 289.43 135.03 287.26 144.91C287.206 145.151 287.071 145.366 286.879 145.52C286.686 145.675 286.447 145.759 286.2 145.76L233.36 145.53C232.953 145.53 232.75 145.733 232.75 146.14L232.71 256.98C232.71 257.118 232.765 257.25 232.862 257.348C232.96 257.445 233.092 257.5 233.23 257.5L290.18 257.46C290.44 257.46 290.695 257.529 290.919 257.659C291.144 257.789 291.331 257.976 291.46 258.201C291.59 258.426 291.658 258.681 291.658 258.94C291.658 259.2 291.59 259.455 291.46 259.68L276.16 285.98C275.986 286.275 275.739 286.52 275.443 286.69C275.146 286.86 274.811 286.95 274.47 286.95L201.51 286.74C200.984 286.737 200.48 286.528 200.109 286.157C199.738 285.786 199.53 285.283 199.53 284.76L199.49 240.89C199.49 240.097 199.123 239.853 198.39 240.16Z" fill="#3B3B3B"/>
<path d="M349.099 206.384C348.333 211.508 351.295 216.197 355.714 216.857C360.132 217.517 364.335 213.899 365.101 208.776C365.867 203.652 362.905 198.963 358.486 198.303C354.068 197.643 349.865 201.261 349.099 206.384Z" fill="#3B3B3B"/>
<path d="M156.2 434.76C155.89 434.622 155.556 434.554 155.22 434.56L133.3 435.05C132.964 435.058 132.641 435.177 132.379 435.389C132.117 435.6 131.931 435.892 131.85 436.22L130.68 441.09C130.606 441.384 130.443 441.648 130.215 441.846C129.986 442.045 129.701 442.168 129.4 442.2C127.307 442.427 125.217 442.69 123.13 442.99C120.64 443.35 119.57 441.68 120.85 439.5C127.517 428.12 132.47 418.4 135.71 410.34C138.01 404.62 140.267 399.09 142.48 393.75C143.147 392.13 144.393 391.45 146.22 391.71C149.16 392.11 150.41 394.01 151.24 396.56C156.1 411.407 161.623 425.883 167.81 439.99C168.657 441.91 168.043 443.02 165.97 443.32C164.53 443.533 162.953 443.573 161.24 443.44C159.573 443.313 158.573 442.43 158.24 440.79C157.953 439.403 157.707 437.973 157.5 436.5C157.387 435.687 156.953 435.107 156.2 434.76ZM137.43 426.48C137.387 426.591 137.37 426.71 137.383 426.829C137.396 426.947 137.436 427.06 137.502 427.159C137.568 427.258 137.657 427.34 137.761 427.398C137.865 427.455 137.981 427.487 138.1 427.49L151.99 427.88C152.108 427.883 152.226 427.857 152.332 427.805C152.438 427.753 152.53 427.676 152.601 427.581C152.671 427.486 152.718 427.376 152.737 427.259C152.756 427.142 152.747 427.022 152.71 426.91L146.3 407.56C146.252 407.416 146.161 407.29 146.039 407.199C145.917 407.109 145.771 407.058 145.619 407.054C145.467 407.049 145.318 407.092 145.191 407.175C145.064 407.258 144.966 407.379 144.91 407.52L137.43 426.48Z" fill="#3B3B3B"/>
<path d="M232.97 434.69L256.33 434.78C256.43 434.78 256.529 434.8 256.622 434.839C256.714 434.878 256.798 434.935 256.868 435.007C256.937 435.078 256.992 435.164 257.029 435.257C257.065 435.35 257.083 435.45 257.08 435.55L256.88 441.57C256.875 441.765 256.793 441.951 256.653 442.087C256.513 442.224 256.326 442.3 256.13 442.3L224.99 442.25C224.891 442.25 224.792 442.23 224.701 442.192C224.609 442.154 224.526 442.097 224.456 442.027C224.386 441.956 224.331 441.872 224.294 441.78C224.257 441.688 224.239 441.589 224.24 441.49L224.92 392.59C224.921 392.49 224.943 392.391 224.983 392.299C225.023 392.207 225.081 392.124 225.154 392.055C225.226 391.986 225.312 391.933 225.406 391.897C225.5 391.862 225.6 391.846 225.7 391.85L231.83 392.07C232.025 392.078 232.21 392.162 232.345 392.304C232.479 392.446 232.553 392.634 232.55 392.83L232.23 433.94C232.23 434.137 232.308 434.326 232.446 434.467C232.585 434.607 232.773 434.687 232.97 434.69Z" fill="#3B3B3B"/>
<path d="M367.49 443.96C346.42 448.18 337.73 434.2 339.63 414.99C341.04 400.67 352.36 388.43 367.71 392.75C374.98 394.8 379.14 399.99 378.35 407.76C378.331 407.931 378.277 408.096 378.191 408.245C378.105 408.395 377.989 408.526 377.85 408.63C375.74 410.22 372.88 409.49 371.98 406.94C370.43 402.57 366.85 399.77 361.99 400.52C350.81 402.27 348.71 410.33 348.73 420.06C348.75 426.55 350.21 434.35 357.09 436.39C363.423 438.27 368.457 436.68 372.19 431.62C373.98 429.18 378.45 431.21 377.73 434.2C376.52 439.21 372.49 442.96 367.49 443.96Z" fill="#3B3B3B"/>
<path d="M299 412.38C298.942 412.371 298.883 412.375 298.827 412.392C298.771 412.408 298.72 412.438 298.677 412.477C298.633 412.516 298.6 412.565 298.578 412.619C298.556 412.673 298.546 412.732 298.55 412.79C299.137 422.343 299.01 431.937 298.17 441.57C298.097 442.423 297.63 442.853 296.77 442.86L291.61 442.89C291.457 442.891 291.306 442.862 291.165 442.804C291.023 442.747 290.895 442.661 290.787 442.553C290.679 442.445 290.593 442.317 290.536 442.175C290.478 442.034 290.449 441.883 290.45 441.73L290.85 393.03C290.85 392.85 290.911 392.676 291.024 392.534C291.136 392.393 291.293 392.293 291.47 392.25C294.88 391.45 297.2 393.5 298.96 396.09C307.1 408.097 314.903 419.41 322.37 430.03C322.443 430.137 322.537 430.223 322.65 430.29C323.157 430.617 323.407 430.48 323.4 429.88L322.73 393.49C322.717 392.963 322.977 392.71 323.51 392.73L330.75 393.02C330.95 393.028 331.139 393.114 331.275 393.26C331.412 393.406 331.485 393.6 331.48 393.8C331.14 409.813 331.277 425.783 331.89 441.71C331.898 441.939 331.831 442.165 331.699 442.351C331.567 442.537 331.377 442.674 331.16 442.74C325.39 444.53 321.8 442.41 318.42 437.59C312.887 429.677 306.563 421.363 299.45 412.65C299.33 412.497 299.18 412.407 299 412.38Z" fill="#3B3B3B"/>
<path d="M410.1 434.93C413.19 434.13 413.84 430.18 412.29 427.84C411.243 426.26 409.627 425.17 407.44 424.57C403.627 423.53 399.87 422.483 396.17 421.43C390.44 419.8 386.34 415.81 386.23 409.43C386.09 400.41 392.33 394.38 400.98 392.77C408.12 391.45 418.89 393.23 419.4 402.19C419.48 403.63 418.88 405.14 417.31 405.49C414.363 406.143 412.297 405.103 411.11 402.37C410.959 402.027 410.727 401.724 410.435 401.488C410.143 401.251 409.799 401.087 409.43 401.01C405.597 400.21 402.213 400.707 399.28 402.5C395.22 404.98 394.39 410.87 399.23 413.08C402.117 414.4 405.193 415.5 408.46 416.38C412.52 417.473 415.427 418.83 417.18 420.45C422.52 425.37 422.86 434.21 417.44 439.32C415.88 440.793 413.833 441.88 411.3 442.58C402.95 444.89 387.98 446.35 386.25 434.28C386.221 434.076 386.239 433.868 386.303 433.673C386.367 433.477 386.475 433.299 386.62 433.152C386.764 433.005 386.94 432.893 387.134 432.825C387.328 432.757 387.536 432.735 387.74 432.76C388.59 432.87 389.85 433.38 390.53 433.88C394.65 436.87 399.3 436.43 404.08 435.96C406.24 435.747 408.247 435.403 410.1 434.93Z" fill="#3B3B3B"/>
<path d="M189.03 435.13L211.82 435.24C212.54 435.247 212.853 435.607 212.76 436.32L212.15 441C212.043 441.827 211.573 442.243 210.74 442.25L180.22 442.51C180.093 442.51 179.967 442.483 179.852 442.43C179.736 442.376 179.634 442.298 179.552 442.201C179.47 442.104 179.41 441.989 179.377 441.867C179.344 441.744 179.338 441.615 179.36 441.49C179.75 439.21 180.26 437.04 180.3 434.73C180.533 420.563 180.563 406.877 180.39 393.67C180.377 392.917 180.747 392.533 181.5 392.52L187.2 392.45C187.887 392.437 188.227 392.77 188.22 393.45L187.95 434.03C187.949 434.174 187.976 434.317 188.029 434.45C188.083 434.584 188.162 434.705 188.263 434.807C188.363 434.91 188.483 434.991 188.614 435.046C188.746 435.101 188.887 435.13 189.03 435.13Z" fill="#3B3B3B"/>
<path d="M70.78 436.42L70.83 441.42C70.8313 441.536 70.8099 441.65 70.7669 441.758C70.7238 441.865 70.6601 441.963 70.5793 442.045C70.4985 442.128 70.4023 442.194 70.296 442.239C70.1897 442.285 70.0756 442.309 69.96 442.31L37.58 442.51C37.4628 442.511 37.3464 442.489 37.2378 442.445C37.1292 442.401 37.0306 442.335 36.9477 442.252C36.8648 442.169 36.7993 442.071 36.755 441.962C36.7108 441.854 36.6887 441.737 36.69 441.62L37.33 393.82C37.3326 393.588 37.4265 393.367 37.5913 393.204C37.756 393.041 37.9783 392.95 38.21 392.95L45.08 392.99C45.1964 392.99 45.3117 393.013 45.4191 393.058C45.5265 393.103 45.624 393.169 45.7058 393.251C45.7877 393.334 45.8523 393.432 45.8959 393.54C45.9395 393.648 45.9613 393.764 45.96 393.88L45.28 434.14C45.2773 434.256 45.2978 434.372 45.3402 434.481C45.3826 434.589 45.4461 434.688 45.5271 434.772C45.608 434.855 45.7047 434.922 45.8116 434.968C45.9186 435.014 46.0336 435.039 46.15 435.04L69.92 435.55C70.1482 435.555 70.3654 435.649 70.5259 435.811C70.6864 435.973 70.7775 436.192 70.78 436.42Z" fill="#3B3B3B"/>
<path d="M94.19 435.14L113.54 435.16C114.133 435.16 114.393 435.457 114.32 436.05L113.61 441.5C113.55 442.007 113.263 442.26 112.75 442.26L85.45 442.29C85.1728 442.29 84.8998 442.223 84.6537 442.095C84.4076 441.968 84.1954 441.783 84.035 441.556C83.8746 441.329 83.7705 441.066 83.7313 440.791C83.6922 440.515 83.7192 440.233 83.81 439.97C84.4567 438.13 84.8367 436.223 84.95 434.25C85.63 422.65 85.8267 409.217 85.54 393.95C85.5373 393.82 85.5604 393.692 85.6078 393.571C85.6553 393.451 85.7262 393.341 85.8164 393.248C85.9066 393.155 86.0143 393.08 86.1334 393.029C86.2524 392.978 86.3804 392.951 86.51 392.95L92.53 392.93C93.2567 392.93 93.63 393.293 93.65 394.02C94.05 407.187 93.86 420.5 93.08 433.96C93.0704 434.112 93.092 434.263 93.1435 434.406C93.195 434.549 93.2752 434.68 93.3793 434.791C93.4833 434.901 93.609 434.989 93.7484 435.049C93.8878 435.109 94.0381 435.14 94.19 435.14Z" fill="#3B3B3B"/>
<path d="M277.639 393.007L271.56 392.954C271.123 392.951 270.767 393.301 270.763 393.738L270.338 442.456C270.334 442.892 270.684 443.249 271.121 443.253L277.2 443.306C277.637 443.309 277.993 442.959 277.997 442.523L278.422 393.804C278.426 393.368 278.076 393.011 277.639 393.007Z" fill="#3B3B3B"/>
<path d="M343.4 477.52L344.67 462.93C344.701 462.594 344.84 462.276 345.065 462.024C345.29 461.772 345.589 461.599 345.92 461.53L346.29 461.46C346.943 461.32 347.283 461.587 347.31 462.26C347.557 467.98 347.357 473.623 346.71 479.19C346.523 480.803 345.623 481.78 344.01 482.12C339.97 482.97 328.08 485.32 326.27 479.67C325.703 477.923 325.387 476.027 325.32 473.98C325.153 469.2 325.223 464.76 325.53 460.66C325.617 459.493 326.243 458.933 327.41 458.98C328.157 459.007 328.85 459.367 329.49 460.06C329.895 460.491 330.123 461.059 330.13 461.65C330.183 466.637 330.393 471.1 330.76 475.04C330.953 477.14 332.21 478.267 334.53 478.42C337.19 478.6 339.803 478.63 342.37 478.51C342.634 478.497 342.883 478.389 343.073 478.207C343.262 478.025 343.378 477.781 343.4 477.52Z" fill="#3B3B3B"/>
<path d="M301.235 459.568L299.855 459.553C298.933 459.544 298.178 460.284 298.168 461.206L297.952 481.785C297.943 482.707 298.683 483.462 299.605 483.472L300.985 483.487C301.907 483.496 302.662 482.756 302.672 481.834L302.888 461.255C302.897 460.333 302.157 459.578 301.235 459.568Z" fill="#3B3B3B"/>
<path d="M139.75 466C136.36 473.8 140.17 482.02 149.89 479.07C150.95 478.743 151.503 479.137 151.55 480.25L151.57 480.94C151.617 482.027 151.117 482.717 150.07 483.01C145.79 484.22 139.2 484.78 136.58 480.47C133.94 476.137 132.977 471.863 133.69 467.65C134.94 460.29 142.75 458.75 148.99 460.28C150.197 460.58 150.853 461.347 150.96 462.58C150.987 462.833 150.967 463.083 150.9 463.33C150.693 464.143 150.18 464.46 149.36 464.28C146.793 463.72 144.18 463.79 141.52 464.49C141.131 464.59 140.769 464.777 140.462 465.039C140.155 465.301 139.912 465.629 139.75 466Z" fill="#3B3B3B"/>
<path d="M227.82 463.49C221.06 464.01 220.85 472.81 222.83 477.47C222.99 477.85 223.263 478.11 223.65 478.25L227.37 479.59C227.5 479.636 227.615 479.714 227.705 479.818C227.796 479.923 227.857 480.049 227.884 480.184C227.911 480.32 227.903 480.461 227.86 480.593C227.818 480.726 227.742 480.845 227.64 480.94C223.8 484.42 220.51 482.65 218.89 478.27C214.22 465.65 221.72 456.82 235.1 460.51C235.693 460.677 236.12 461.027 236.38 461.56C236.449 461.701 236.482 461.857 236.476 462.015C236.469 462.172 236.424 462.325 236.344 462.462C236.264 462.598 236.152 462.713 236.017 462.796C235.882 462.88 235.728 462.929 235.57 462.94C232.803 463.127 230.22 463.31 227.82 463.49Z" fill="#3B3B3B"/>
<path d="M94.75 477.89C95.15 478.69 99.1 479.233 106.6 479.52C107.5 479.56 108.037 480.023 108.21 480.91C108.297 481.37 108.147 481.857 107.76 482.37C107.534 482.667 107.208 482.872 106.84 482.95C102.687 483.777 98.51 483.84 94.31 483.14C93.17 482.947 92.2833 482.333 91.65 481.3C84.86 470.22 88.91 456.49 104.52 460.62C104.818 460.699 105.09 460.854 105.307 461.07C105.525 461.286 105.681 461.555 105.76 461.85C106.02 462.843 105.81 463.59 105.13 464.09C104.81 464.33 104.457 464.453 104.07 464.46C101.54 464.52 97.37 463.77 95.42 465.6C92.43 468.4 93.12 474.64 94.75 477.89Z" fill="#3B3B3B"/>
<path d="M180.16 464.39C179.607 464.55 179.25 464.907 179.09 465.46C178.01 469.05 177.24 476.02 180.52 478.58C182.65 480.25 188.15 479.46 190.6 479.05C191.727 478.863 192.283 479.34 192.27 480.48V480.99C192.267 481.52 192.078 482.032 191.736 482.438C191.395 482.843 190.922 483.117 190.4 483.21C184.41 484.24 175.96 485.28 174.04 477.66C172.8 472.74 172.23 465.7 176.51 462.19C179.97 459.36 186.07 459.81 189.99 460.96C190.416 461.085 190.797 461.332 191.086 461.669C191.375 462.006 191.561 462.42 191.62 462.86C191.66 463.127 191.653 463.393 191.6 463.66C191.487 464.247 191.137 464.477 190.55 464.35C186.717 463.49 183.253 463.503 180.16 464.39Z" fill="#3B3B3B"/>
<path d="M376.8 479.49C378.147 479.563 378.88 478.927 379 477.58C379.027 477.28 379.047 476.99 379.06 476.71C379.133 475.257 378.45 474.633 377.01 474.84C374.903 475.14 373.567 475.12 373 474.78C369.2 472.467 366.843 469.127 365.93 464.76C365.5 462.71 366.92 461.45 368.67 460.85C372.63 459.483 376.767 459.693 381.08 461.48C382.63 462.12 383.36 463.61 382.71 465.24C382.65 465.392 382.54 465.518 382.398 465.598C382.256 465.679 382.091 465.707 381.93 465.68L371.99 463.83C371.864 463.805 371.734 463.808 371.61 463.84C371.486 463.871 371.37 463.93 371.27 464.013C371.171 464.095 371.091 464.198 371.035 464.315C370.98 464.432 370.951 464.56 370.95 464.69C370.93 469.58 376.22 472.51 380.17 474.25C380.775 474.52 381.257 475.013 381.52 475.63C382.36 477.623 382.55 479.84 382.09 482.28C382.022 482.637 381.832 482.959 381.552 483.189C381.272 483.419 380.921 483.544 380.56 483.54L366.25 483.47C365.781 483.466 365.33 483.288 364.988 482.969C364.645 482.65 364.435 482.215 364.4 481.75L364.3 480.31C364.227 479.317 364.69 478.847 365.69 478.9L376.8 479.49Z" fill="#3B3B3B"/>
<path d="M264.63 480.28L273.32 479.55C274.487 479.45 275.217 479.967 275.51 481.1C275.577 481.347 275.58 481.593 275.52 481.84C275.16 483.287 274.23 484 272.73 483.98L259.8 483.8C259.534 483.797 259.28 483.691 259.092 483.504C258.905 483.316 258.8 483.063 258.8 482.8L258.66 461.93C258.647 460.803 259.2 460.293 260.32 460.4L260.73 460.44C262.117 460.567 262.8 461.33 262.78 462.73L262.58 478.37C262.576 478.634 262.628 478.896 262.731 479.139C262.835 479.381 262.988 479.6 263.181 479.78C263.375 479.96 263.603 480.097 263.853 480.183C264.102 480.269 264.367 480.302 264.63 480.28Z" fill="#3B3B3B"/>
<path d="M410.26 465.04L410.88 482.45C410.883 482.551 410.865 482.651 410.827 482.745C410.789 482.839 410.732 482.924 410.66 482.994C410.587 483.065 410.501 483.119 410.406 483.155C410.312 483.19 410.211 483.206 410.11 483.2L407.79 483.06C407.609 483.048 407.438 482.968 407.313 482.837C407.187 482.705 407.115 482.532 407.11 482.35L406.58 465.16C406.575 464.972 406.497 464.792 406.363 464.66C406.229 464.528 406.048 464.453 405.86 464.45L401.35 464.41C401.163 464.408 400.984 464.334 400.851 464.203C400.717 464.073 400.638 463.897 400.63 463.71L400.52 461.31C400.516 461.212 400.532 461.113 400.567 461.021C400.602 460.929 400.655 460.845 400.723 460.774C400.791 460.703 400.873 460.647 400.964 460.608C401.054 460.57 401.152 460.55 401.25 460.55L414.1 460.47C414.289 460.47 414.47 460.543 414.606 460.673C414.742 460.804 414.822 460.982 414.83 461.17L414.93 463.6C414.934 463.7 414.918 463.8 414.882 463.893C414.846 463.987 414.791 464.072 414.72 464.143C414.65 464.214 414.566 464.27 414.473 464.308C414.38 464.345 414.28 464.363 414.18 464.36L411.01 464.28C410.91 464.277 410.81 464.295 410.717 464.332C410.624 464.37 410.54 464.426 410.47 464.497C410.399 464.568 410.345 464.653 410.308 464.747C410.272 464.84 410.256 464.94 410.26 465.04Z" fill="#3B3B3B"/>
<path d="M69.3768 467.843L38.2968 467.897C37.4021 467.899 36.6781 468.625 36.6796 469.52L36.6804 469.96C36.682 470.855 37.4085 471.579 38.3032 471.577L69.3832 471.523C70.2779 471.521 71.0019 470.795 71.0004 469.9L70.9996 469.46C70.998 468.565 70.2715 467.841 69.3768 467.843Z" fill="#3B3B3B"/>
</svg>
