<svg width="172" height="21" viewBox="0 0 172 21" fill="none" xmlns="http://www.w3.org/2000/svg">
<path d="M7.5 2.25C7.5 1.03125 8.48438 0 9.75 0H11.25C12.4688 0 13.5 1.03125 13.5 2.25V18.75C13.5 20.0156 12.4688 21 11.25 21H9.75C8.48438 21 7.5 20.0156 7.5 18.75V2.25ZM0 11.25C0 10.0312 0.984375 9 2.25 9H3.75C4.96875 9 6 10.0312 6 11.25V18.75C6 20.0156 4.96875 21 3.75 21H2.25C0.984375 21 0 20.0156 0 18.75V11.25ZM18.75 3C19.9688 3 21 4.03125 21 5.25V18.75C21 20.0156 19.9688 21 18.75 21H17.25C15.9844 21 15 20.0156 15 18.75V5.25C15 4.03125 15.9844 3 17.25 3H18.75Z" fill="white"/>
<path d="M172.001 6.368L168.377 19.76H163.841L161.729 11.072L159.545 19.76H155.033L151.385 6.368H155.489L157.385 15.944L159.641 6.368H163.985L166.265 15.896L168.137 6.368H172.001Z" fill="white"/>
<path d="M143.592 19.952C142.28 19.952 141.096 19.672 140.04 19.112C139 18.552 138.176 17.752 137.568 16.712C136.976 15.672 136.68 14.456 136.68 13.064C136.68 11.688 136.984 10.48 137.592 9.44C138.2 8.384 139.032 7.576 140.088 7.016C141.144 6.456 142.328 6.17599 143.64 6.17599C144.952 6.17599 146.136 6.456 147.192 7.016C148.248 7.576 149.08 8.384 149.688 9.44C150.296 10.48 150.6 11.688 150.6 13.064C150.6 14.44 150.288 15.656 149.664 16.712C149.056 17.752 148.216 18.552 147.144 19.112C146.088 19.672 144.904 19.952 143.592 19.952ZM143.592 16.4C144.376 16.4 145.04 16.112 145.584 15.536C146.144 14.96 146.424 14.136 146.424 13.064C146.424 11.992 146.152 11.168 145.608 10.592C145.08 10.016 144.424 9.728 143.64 9.728C142.84 9.728 142.176 10.016 141.648 10.592C141.12 11.152 140.856 11.976 140.856 13.064C140.856 14.136 141.112 14.96 141.624 15.536C142.152 16.112 142.808 16.4 143.592 16.4Z" fill="white"/>
<path d="M134.521 2V19.76H130.417V2H134.521Z" fill="white"/>
<path d="M128.26 2.912V6.2H121.396V9.752H126.532V12.944H121.396V19.76H117.292V2.912H128.26Z" fill="white"/>
<path d="M109.353 6.224C110.889 6.224 112.121 6.736 113.049 7.76C113.977 8.768 114.441 10.16 114.441 11.936V19.76H110.361V12.488C110.361 11.592 110.129 10.896 109.665 10.4C109.201 9.904 108.577 9.656 107.793 9.656C107.009 9.656 106.385 9.904 105.921 10.4C105.457 10.896 105.225 11.592 105.225 12.488V19.76H101.121V2H105.225V8.168C105.641 7.576 106.209 7.104 106.929 6.752C107.649 6.4 108.457 6.224 109.353 6.224Z" fill="white"/>
<path d="M85.7733 13.064C85.7733 11.672 86.0533 10.456 86.6133 9.416C87.1893 8.376 87.9813 7.576 88.9893 7.016C90.0133 6.456 91.1813 6.17599 92.4933 6.17599C94.1733 6.17599 95.5733 6.616 96.6933 7.496C97.8293 8.376 98.5733 9.616 98.9253 11.216H94.5573C94.1893 10.192 93.4773 9.68 92.4213 9.68C91.6693 9.68 91.0693 9.976 90.6213 10.568C90.1733 11.144 89.9493 11.976 89.9493 13.064C89.9493 14.152 90.1733 14.992 90.6213 15.584C91.0693 16.16 91.6693 16.448 92.4213 16.448C93.4773 16.448 94.1893 15.936 94.5573 14.912H98.9253C98.5733 16.48 97.8293 17.712 96.6933 18.608C95.5573 19.504 94.1573 19.952 92.4933 19.952C91.1813 19.952 90.0133 19.672 88.9893 19.112C87.9813 18.552 87.1893 17.752 86.6133 16.712C86.0533 15.672 85.7733 14.456 85.7733 13.064Z" fill="white"/>
<path d="M80.4277 8.6C80.9077 7.864 81.5077 7.288 82.2277 6.872C82.9477 6.44 83.7477 6.224 84.6277 6.224V10.568H83.4997C82.4757 10.568 81.7077 10.792 81.1957 11.24C80.6837 11.672 80.4277 12.44 80.4277 13.544V19.76H76.3237V6.368H80.4277V8.6Z" fill="white"/>
<path d="M59.2188 13.04C59.2188 11.664 59.4747 10.456 59.9867 9.416C60.5147 8.376 61.2267 7.576 62.1227 7.016C63.0187 6.456 64.0187 6.17599 65.1227 6.17599C66.0667 6.17599 66.8907 6.368 67.5947 6.752C68.3147 7.136 68.8667 7.64 69.2507 8.264V6.368H73.3548V19.76H69.2507V17.864C68.8507 18.488 68.2908 18.992 67.5708 19.376C66.8668 19.76 66.0428 19.952 65.0988 19.952C64.0108 19.952 63.0187 19.672 62.1227 19.112C61.2267 18.536 60.5147 17.728 59.9867 16.688C59.4747 15.632 59.2188 14.416 59.2188 13.04ZM69.2507 13.064C69.2507 12.04 68.9627 11.232 68.3867 10.64C67.8267 10.048 67.1388 9.752 66.3228 9.752C65.5068 9.752 64.8107 10.048 64.2347 10.64C63.6747 11.216 63.3947 12.016 63.3947 13.04C63.3947 14.064 63.6747 14.88 64.2347 15.488C64.8107 16.08 65.5068 16.376 66.3228 16.376C67.1388 16.376 67.8267 16.08 68.3867 15.488C68.9627 14.896 69.2507 14.088 69.2507 13.064Z" fill="white"/>
<path d="M57.8697 12.848C57.8697 13.232 57.8457 13.632 57.7977 14.048H48.5097C48.5737 14.88 48.8377 15.52 49.3017 15.968C49.7817 16.4 50.3657 16.616 51.0537 16.616C52.0777 16.616 52.7897 16.184 53.1897 15.32H57.5577C57.3337 16.2 56.9257 16.992 56.3337 17.696C55.7577 18.4 55.0297 18.952 54.1497 19.352C53.2697 19.752 52.2857 19.952 51.1977 19.952C49.8857 19.952 48.7177 19.672 47.6937 19.112C46.6697 18.552 45.8697 17.752 45.2937 16.712C44.7177 15.672 44.4297 14.456 44.4297 13.064C44.4297 11.672 44.7097 10.456 45.2697 9.416C45.8457 8.376 46.6457 7.576 47.6697 7.016C48.6937 6.456 49.8697 6.17599 51.1977 6.17599C52.4937 6.17599 53.6457 6.448 54.6537 6.992C55.6617 7.536 56.4457 8.312 57.0057 9.32C57.5817 10.328 57.8697 11.504 57.8697 12.848ZM53.6697 11.768C53.6697 11.064 53.4297 10.504 52.9497 10.088C52.4697 9.672 51.8697 9.464 51.1497 9.464C50.4617 9.464 49.8777 9.664 49.3977 10.064C48.9337 10.464 48.6457 11.032 48.5337 11.768H53.6697Z" fill="white"/>
<path d="M36.576 19.928C35.344 19.928 34.24 19.728 33.264 19.328C32.288 18.928 31.504 18.336 30.912 17.552C30.336 16.768 30.032 15.824 30 14.72H34.368C34.432 15.344 34.648 15.824 35.016 16.16C35.384 16.48 35.864 16.64 36.456 16.64C37.064 16.64 37.544 16.504 37.896 16.232C38.248 15.944 38.424 15.552 38.424 15.056C38.424 14.64 38.28 14.296 37.992 14.024C37.72 13.752 37.376 13.528 36.96 13.352C36.56 13.176 35.984 12.976 35.232 12.752C34.144 12.416 33.256 12.08 32.568 11.744C31.88 11.408 31.288 10.912 30.792 10.256C30.296 9.6 30.048 8.744 30.048 7.688C30.048 6.12 30.616 4.896 31.752 4.016C32.888 3.12 34.368 2.672 36.192 2.672C38.048 2.672 39.544 3.12 40.68 4.016C41.816 4.896 42.424 6.128 42.504 7.712H38.064C38.032 7.168 37.832 6.744 37.464 6.44C37.096 6.12 36.624 5.96 36.048 5.96C35.552 5.96 35.152 6.096 34.848 6.368C34.544 6.624 34.392 7 34.392 7.496C34.392 8.04 34.648 8.464 35.16 8.768C35.672 9.072 36.472 9.4 37.56 9.752C38.648 10.12 39.528 10.472 40.2 10.808C40.888 11.144 41.48 11.632 41.976 12.272C42.472 12.912 42.72 13.736 42.72 14.744C42.72 15.704 42.472 16.576 41.976 17.36C41.496 18.144 40.792 18.768 39.864 19.232C38.936 19.696 37.84 19.928 36.576 19.928Z" fill="white"/>
</svg>
